<svg width="433" height="107" viewBox="0 0 433 107" fill="none" xmlns="http://www.w3.org/2000/svg">
<rect opacity="0.5" x="48.4727" width="7.06891" height="92.9057" rx="3.53446" fill="#D9D9D9"/>
<rect opacity="0.5" x="48.4727" width="7.06891" height="92.9057" rx="3.53446" fill="#D9D9D9"/>
<rect x="72.7031" y="5.04883" width="7.06899" height="82.8082" rx="3.5345" fill="url(#paint0_linear_588_24)"/>
<rect x="72.7031" y="5.04883" width="7.06899" height="82.8082" rx="3.5345" fill="url(#paint1_linear_588_24)"/>
<rect x="182.535" y="9.6416" width="7.06899" height="82.8082" rx="3.5345" fill="#D9D9D9"/>
<rect opacity="0.7" x="290.359" y="9.6416" width="7.06899" height="82.8082" rx="3.5345" fill="#5253B9"/>
<rect x="151.766" y="10.5049" width="7.06899" height="82.8082" rx="3.5345" fill="#8485CC"/>
<rect x="339.766" y="13.5049" width="7.06891" height="92.9057" rx="3.53446" fill="url(#paint2_linear_588_24)"/>
<rect x="340.117" y="13.5049" width="7.06891" height="92.9057" rx="3.53446" fill="url(#paint3_linear_588_24)"/>
<rect opacity="0.5" x="424.945" y="13.5049" width="7.06891" height="92.9057" rx="3.53446" fill="#D9D9D9"/>
<rect opacity="0.5" x="424.945" y="13.5049" width="7.06891" height="92.9057" rx="3.53446" fill="#D9D9D9"/>
<rect opacity="0.5" x="364.355" y="18.5537" width="7.06899" height="82.8082" rx="3.5345" fill="#D9D9D9"/>
<rect opacity="0.5" x="364.355" y="18.5537" width="7.06899" height="82.8082" rx="3.5345" fill="#D9D9D9"/>
<rect opacity="0.5" x="12.1172" y="20.1992" width="7.06899" height="53.5224" rx="3.5345" fill="#D9D9D9"/>
<rect opacity="0.5" x="12.1172" y="20.1992" width="7.06899" height="53.5224" rx="3.5345" fill="#D9D9D9"/>
<rect opacity="0.5" x="36.3516" y="20.1992" width="7.06899" height="53.5224" rx="3.5345" fill="#D9D9D9"/>
<rect opacity="0.5" x="36.3516" y="20.1992" width="7.06899" height="53.5224" rx="3.5345" fill="#D9D9D9"/>
<rect x="60.5859" y="20.1992" width="7.06899" height="53.5224" rx="3.5345" fill="url(#paint4_linear_588_24)"/>
<rect x="60.5859" y="20.1992" width="7.06899" height="53.5224" rx="3.5345" fill="url(#paint5_linear_588_24)"/>
<rect opacity="0.7" x="96.9414" y="20.1992" width="7.06899" height="53.5224" rx="3.5345" fill="#5253B9"/>
<rect opacity="0.7" x="96.9414" y="20.1992" width="7.06899" height="53.5224" rx="3.5345" fill="#5253B9"/>
<rect x="170.414" y="24.792" width="7.06899" height="53.5224" rx="3.5345" fill="#D9D9D9"/>
<rect x="170.414" y="24.792" width="7.06899" height="53.5224" rx="3.5345" fill="#6162BF"/>
<rect x="206.77" y="24.792" width="7.06899" height="53.5224" rx="3.5345" fill="#D9D9D9"/>
<rect x="206.77" y="24.792" width="7.06899" height="53.5224" rx="3.5345" fill="#D9D9D9"/>
<rect x="231.004" y="24.792" width="7.06899" height="53.5224" rx="3.5345" fill="#D9D9D9"/>
<rect x="231.004" y="24.792" width="7.06899" height="53.5224" rx="3.5345" fill="#D9D9D9"/>
<rect opacity="0.7" x="121.184" y="28.2773" width="7.06899" height="36.3548" rx="3.5345" fill="#5253B9"/>
<rect opacity="0.7" x="121.184" y="28.2773" width="7.06899" height="36.3548" rx="3.5345" fill="#5253B9"/>
<rect opacity="0.5" y="32.3145" width="7.06899" height="29.2858" rx="3.5345" fill="#D9D9D9"/>
<rect opacity="0.5" y="32.3145" width="7.06899" height="29.2858" rx="3.5345" fill="#D9D9D9"/>
<rect opacity="0.5" x="24.2344" y="32.3145" width="7.06899" height="29.2858" rx="3.5345" fill="#D9D9D9"/>
<rect opacity="0.5" x="24.2344" y="32.3145" width="7.06899" height="29.2858" rx="3.5345" fill="#D9D9D9"/>
<rect opacity="0.7" x="84.8242" y="32.3164" width="7.06899" height="29.2858" rx="3.5345" fill="#5253B9"/>
<rect opacity="0.7" x="84.8242" y="32.3164" width="7.06899" height="29.2858" rx="3.5345" fill="#5253B9"/>
<rect opacity="0.7" x="109.062" y="32.3164" width="7.06899" height="29.2858" rx="3.5345" fill="#5253B9"/>
<path opacity="0.7" d="M109.062 35.8509C109.062 33.8989 110.645 32.3164 112.597 32.3164C114.549 32.3164 116.131 33.8989 116.131 35.8509V58.0677C116.131 60.0198 114.549 61.6022 112.597 61.6022C110.645 61.6022 109.062 60.0198 109.062 58.0677V35.8509Z" fill="#5253B9"/>
<rect x="133.297" y="32.3164" width="7.06899" height="29.2858" rx="3.5345" fill="black"/>
<rect x="133.297" y="32.3164" width="7.06899" height="29.2858" rx="3.5345" fill="#5253B9"/>
<rect opacity="0.7" x="303.766" y="33.7041" width="7.06899" height="53.5224" rx="3.5345" fill="#5253B9"/>
<rect opacity="0.7" x="303.766" y="33.7041" width="7.06899" height="53.5224" rx="3.5345" fill="#5253B9"/>
<rect opacity="0.7" x="328" y="33.7041" width="7.06899" height="53.5224" rx="3.5345" fill="#5253B9"/>
<rect opacity="0.7" x="328" y="33.7041" width="7.06899" height="53.5224" rx="3.5345" fill="#5253B9"/>
<rect x="352.238" y="33.7041" width="7.06899" height="53.5224" rx="3.5345" fill="url(#paint6_linear_588_24)"/>
<rect x="352.238" y="33.7041" width="7.06899" height="53.5224" rx="3.5345" fill="url(#paint7_linear_588_24)"/>
<rect opacity="0.5" x="388.59" y="33.7041" width="7.06899" height="53.5224" rx="3.5345" fill="#D9D9D9"/>
<rect opacity="0.5" x="388.59" y="33.7041" width="7.06899" height="53.5224" rx="3.5345" fill="#D9D9D9"/>
<rect opacity="0.5" x="412.828" y="33.7041" width="7.06899" height="53.5224" rx="3.5345" fill="#D9D9D9"/>
<rect opacity="0.5" x="412.828" y="33.7041" width="7.06899" height="53.5224" rx="3.5345" fill="#D9D9D9"/>
<rect x="194.652" y="36.9072" width="7.06899" height="29.2858" rx="3.5345" fill="#D9D9D9"/>
<rect x="194.652" y="36.9072" width="7.06899" height="29.2858" rx="3.5345" fill="#D9D9D9"/>
<rect x="218.891" y="36.9072" width="7.06899" height="29.2858" rx="3.5345" fill="#D9D9D9"/>
<rect x="218.891" y="36.9072" width="7.06899" height="29.2858" rx="3.5345" fill="#D9D9D9"/>
<rect x="243.121" y="36.9072" width="7.06899" height="29.2858" rx="3.5345" fill="black"/>
<rect x="243.121" y="36.9072" width="7.06899" height="29.2858" rx="3.5345" fill="#AEAEAE"/>
<rect opacity="0.7" x="255.242" y="36.9092" width="7.06899" height="29.2858" rx="3.5345" fill="black"/>
<rect opacity="0.7" x="255.242" y="36.9092" width="7.06899" height="29.2858" rx="3.5345" fill="#8485E6"/>
<rect opacity="0.7" x="279.477" y="36.9092" width="7.06899" height="29.2858" rx="3.5345" fill="#5253B9"/>
<rect opacity="0.7" x="279.477" y="36.9092" width="7.06899" height="29.2858" rx="3.5345" fill="#5253B9"/>
<rect opacity="0.5" x="376.477" y="45.8193" width="7.06899" height="29.2858" rx="3.5345" fill="#D9D9D9"/>
<rect opacity="0.5" x="376.477" y="45.8193" width="7.06899" height="29.2858" rx="3.5345" fill="#D9D9D9"/>
<rect opacity="0.5" x="400.707" y="45.8193" width="7.06899" height="29.2858" rx="3.5345" fill="#D9D9D9"/>
<rect opacity="0.5" x="400.707" y="45.8193" width="7.06899" height="29.2858" rx="3.5345" fill="#D9D9D9"/>
<rect opacity="0.7" x="315.883" y="45.8213" width="7.06899" height="29.2858" rx="3.5345" fill="#5253B9"/>
<rect opacity="0.7" x="315.883" y="45.8213" width="7.06899" height="29.2858" rx="3.5345" fill="#5253B9"/>
<circle cx="212.997" cy="50.9972" r="50.9972" fill="#5253B9"/>
<path d="M222.217 47.4556V49.8926C222.218 52.4644 221.206 54.9332 219.4 56.7644C218.528 57.6536 217.491 58.3649 216.347 58.859C215.485 59.2314 214.572 59.4722 213.639 59.5734V63.106H217.94C218.213 63.106 218.475 63.2146 218.668 63.4079C218.862 63.6011 218.97 63.8633 218.97 64.1366C218.97 64.4099 218.862 64.6721 218.668 64.8653C218.475 65.0586 218.213 65.1672 217.94 65.1672H207.277C207.003 65.1672 206.741 65.0586 206.548 64.8653C206.355 64.6721 206.246 64.4099 206.246 64.1366C206.246 63.8633 206.355 63.6011 206.548 63.4079C206.741 63.2146 207.003 63.106 207.277 63.106H211.578V59.5734C210.644 59.4721 209.731 59.2313 208.869 58.859C207.726 58.3649 206.689 57.6536 205.816 56.7644C204.01 54.9328 202.998 52.4632 203 49.8907V47.4538C203 47.3183 203.027 47.1842 203.079 47.059C203.13 46.9339 203.206 46.8202 203.302 46.7244C203.398 46.6286 203.512 46.5526 203.637 46.5008C203.762 46.4489 203.896 46.4223 204.032 46.4223C204.167 46.4223 204.301 46.4489 204.426 46.5008C204.551 46.5526 204.665 46.6286 204.761 46.7244C204.857 46.8202 204.933 46.9339 204.985 47.059C205.036 47.1842 205.063 47.3183 205.063 47.4538V49.8907C205.058 51.9222 205.857 53.8732 207.286 55.3171C207.978 56.0289 208.805 56.5948 209.719 56.9812C210.633 57.3676 211.616 57.5667 212.608 57.5667C213.601 57.5667 214.583 57.3676 215.497 56.9812C216.411 56.5948 217.239 56.0289 217.93 55.3171C219.359 53.873 220.158 51.9222 220.153 49.8907V47.4538C220.153 47.1802 220.262 46.9178 220.456 46.7244C220.649 46.5309 220.911 46.4223 221.185 46.4223C221.459 46.4223 221.721 46.5309 221.914 46.7244C222.108 46.9178 222.217 47.1821 222.217 47.4556ZM207.53 52.0226C207.241 51.3491 207.093 50.6235 207.096 49.8907V41.5456C207.092 40.8054 207.239 40.0722 207.53 39.3914C208.095 38.0593 209.155 36.9988 210.488 36.4336C211.168 36.1429 211.902 35.9954 212.642 36.0001C213.378 35.995 214.108 36.1425 214.785 36.4336C215.78 36.8651 216.627 37.5797 217.22 38.4886C217.813 39.3974 218.126 40.4604 218.12 41.5456L218.098 49.8926C218.102 51.3482 217.53 52.7462 216.505 53.7805C216.004 54.2798 215.412 54.6799 214.762 54.9599C214.086 55.251 213.356 55.3985 212.619 55.3934C211.879 55.3979 211.146 55.2504 210.465 54.9599C209.141 54.402 208.087 53.3476 207.53 52.0226Z" fill="white"/>
<defs>
<linearGradient id="paint0_linear_588_24" x1="79.7721" y1="46.4529" x2="72.7031" y2="46.4529" gradientUnits="userSpaceOnUse">
<stop stop-color="#5253B9"/>
<stop offset="1" stop-color="#3132A9"/>
</linearGradient>
<linearGradient id="paint1_linear_588_24" x1="79.7721" y1="46.4529" x2="72.7031" y2="46.4529" gradientUnits="userSpaceOnUse">
<stop stop-color="#5253B9"/>
<stop offset="1" stop-color="#5253B9"/>
</linearGradient>
<linearGradient id="paint2_linear_588_24" x1="346.835" y1="59.9577" x2="339.766" y2="59.9577" gradientUnits="userSpaceOnUse">
<stop stop-color="#D9D9D9"/>
<stop offset="1" stop-color="#3132A9"/>
</linearGradient>
<linearGradient id="paint3_linear_588_24" x1="347.186" y1="59.9577" x2="340.117" y2="59.9577" gradientUnits="userSpaceOnUse">
<stop stop-color="#D9D9D9"/>
<stop offset="1" stop-color="#3132A9"/>
</linearGradient>
<linearGradient id="paint4_linear_588_24" x1="67.6549" y1="46.4555" x2="60.5859" y2="46.4555" gradientUnits="userSpaceOnUse">
<stop stop-color="#3132A9"/>
<stop offset="1" stop-color="#D9D9D9" stop-opacity="0"/>
</linearGradient>
<linearGradient id="paint5_linear_588_24" x1="67.6549" y1="46.4555" x2="60.5859" y2="46.4555" gradientUnits="userSpaceOnUse">
<stop stop-color="#5253B9"/>
<stop offset="1" stop-color="#D9D9D9" stop-opacity="0"/>
</linearGradient>
<linearGradient id="paint6_linear_588_24" x1="359.307" y1="59.9604" x2="352.238" y2="59.9604" gradientUnits="userSpaceOnUse">
<stop stop-color="#D9D9D9"/>
<stop offset="1" stop-color="#3132A9"/>
</linearGradient>
<linearGradient id="paint7_linear_588_24" x1="359.307" y1="59.9604" x2="352.238" y2="59.9604" gradientUnits="userSpaceOnUse">
<stop stop-color="#D9D9D9"/>
<stop offset="1" stop-color="#3132A9"/>
</linearGradient>
</defs>
</svg>
