<svg xmlns:xlink="http://www.w3.org/1999/xlink" xmlns="http://www.w3.org/2000/svg" width="1188" height="752" viewBox="0 0 1188 752" fill="none">
<path d="M1 21C1 9.95429 9.9543 1 21 1H1167C1178.05 1 1187 9.95431 1187 21V731C1187 742.046 1178.05 751 1167 751H21C9.9543 751 1 742.046 1 731V21Z" fill="black"/>
<path d="M1 21C1 9.95429 9.9543 1 21 1H1167C1178.05 1 1187 9.95431 1187 21V731C1187 742.046 1178.05 751 1167 751H21C9.9543 751 1 742.046 1 731V21Z" stroke="url(#paint0_linear_2131_40251)" stroke-opacity="0.3" stroke-width="2"/>
<path d="M33 45C33 38.3726 38.3726 33 45 33H1143C1149.63 33 1155 38.3726 1155 45V707C1155 713.627 1149.63 719 1143 719H45C38.3726 719 33 713.627 33 707V45Z" fill="white" fill-opacity="0.1"/>
<path d="M129.535 299.376C129.535 292.197 135.355 286.377 142.534 286.377H1045.47C1052.65 286.377 1058.47 292.197 1058.47 299.376V452.623C1058.47 459.803 1052.65 465.623 1045.47 465.623H142.534C135.355 465.623 129.535 459.803 129.535 452.623V299.376Z" fill="white" fill-opacity="0.05"/>
<path d="M130.522 457.599C130.093 456.567 129.795 455.468 129.645 454.321L130.451 454.216C130.383 453.695 130.348 453.164 130.348 452.623V451.027H129.535V447.834H130.348V444.642H129.535V441.449H130.348V438.257H129.535V435.064H130.348V431.871H129.535V428.679H130.348V425.486H129.535V422.293H130.348V419.101H129.535V415.908H130.348V412.715H129.535V409.523H130.348V406.33H129.535V403.137H130.348V399.945H129.535V396.752H130.348V393.559H129.535V390.367H130.348V387.174H129.535V383.981H130.348V380.789H129.535V377.596H130.348V374.404H129.535V371.211H130.348V368.018H129.535V364.826H130.348V361.633H129.535V358.44H130.348V355.248H129.535V352.055H130.348V348.862H129.535V345.67H130.348V342.477H129.535V339.284H130.348V336.092H129.535V332.899H130.348V329.706H129.535V326.514H130.348V323.321H129.535V320.129H130.348V316.936H129.535V313.743H130.348V310.551H129.535V307.358H130.348V304.165H129.535V300.973H130.348V299.376C130.348 298.836 130.383 298.304 130.451 297.784L129.645 297.678C129.795 296.532 130.093 295.433 130.522 294.4L131.272 294.712C131.683 293.721 132.22 292.796 132.865 291.958L132.221 291.463C132.913 290.562 133.72 289.755 134.621 289.063L135.116 289.707C135.955 289.062 136.879 288.525 137.87 288.114L137.558 287.363C138.591 286.935 139.69 286.636 140.837 286.487L140.942 287.292C141.463 287.225 141.994 287.189 142.534 287.189H144.156V286.377H147.404V287.189H150.652V286.377H153.9V287.189H157.148V286.377H160.396V287.189H163.644V286.377H166.892V287.189H170.14V286.377H173.388V287.189H176.636V286.377H179.884V287.189H183.132V286.377H186.38V287.189H189.627V286.377H192.875V287.189H196.123V286.377H199.371V287.189H202.619V286.377H205.867V287.189H209.115V286.377H212.363V287.189H215.611V286.377H218.859V287.189H222.107V286.377H225.355V287.189H228.603V286.377H231.851V287.189H235.099V286.377H238.347V287.189H241.595V286.377H244.843V287.189H248.091V286.377H251.339V287.189H254.587V286.377H257.835V287.189H261.083V286.377H264.331V287.189H267.579V286.377H270.827V287.189H274.075V286.377H277.323V287.189H280.571V286.377H283.819V287.189H287.067V286.377H290.315V287.189H293.563V286.377H296.811V287.189H300.059V286.377H303.307V287.189H306.555V286.377H309.803V287.189H313.051V286.377H316.299V287.189H319.547V286.377H322.795V287.189H326.043V286.377H329.291V287.189H332.539V286.377H335.787V287.189H339.035V286.377H342.283V287.189H345.531V286.377H348.779V287.189H352.027V286.377H355.275V287.189H358.523V286.377H361.771V287.189H365.019V286.377H368.267V287.189H371.515V286.377H374.763V287.189H378.011V286.377H381.259V287.189H384.507V286.377H387.755V287.189H391.003V286.377H394.251V287.189H397.499V286.377H400.747V287.189H403.995V286.377H407.243V287.189H410.491V286.377H413.739V287.189H416.986V286.377H420.234V287.189H423.482V286.377H426.73V287.189H429.978V286.377H433.226V287.189H436.474V286.377H439.722V287.189H442.97V286.377H446.218V287.189H449.466V286.377H452.714V287.189H455.962V286.377H459.21V287.189H462.458V286.377H465.706V287.189H468.954V286.377H472.202V287.189H475.45V286.377H478.698V287.189H481.946V286.377H485.194V287.189H488.442V286.377H491.69V287.189H494.938V286.377H498.186V287.189H501.434V286.377H504.682V287.189H507.93V286.377H511.178V287.189H514.426V286.377H517.674V287.189H520.922V286.377H524.17V287.189H527.418V286.377H530.666V287.189H533.914V286.377H537.162V287.189H540.41V286.377H543.658V287.189H546.906V286.377H550.154V287.189H553.402V286.377H556.65V287.189H559.898V286.377H563.146V287.189H566.394V286.377H569.641V287.189H572.889V286.377H576.137V287.189H579.385V286.377H582.633V287.189H585.881V286.377H589.129V287.189H592.377V286.377H595.625V287.189H598.873V286.377H602.121V287.189H605.369V286.377H608.617V287.189H611.865V286.377H615.113V287.189H618.361V286.377H621.609V287.189H624.857V286.377H628.105V287.189H631.353V286.377H634.601V287.189H637.849V286.377H641.097V287.189H644.344V286.377H647.592V287.189H650.84V286.377H654.088V287.189H657.336V286.377H660.584V287.189H663.832V286.377H667.08V287.189H670.328V286.377H673.576V287.189H676.824V286.377H680.072V287.189H683.32V286.377H686.568V287.189H689.816V286.377H693.064V287.189H696.312V286.377H699.56V287.189H702.808V286.377H706.056V287.189H709.304V286.377H712.552V287.189H715.799V286.377H719.047V287.189H722.295V286.377H725.543V287.189H728.791V286.377H732.039V287.189H735.287V286.377H738.535V287.189H741.783V286.377H745.031V287.189H748.279V286.377H751.527V287.189H754.775V286.377H758.023V287.189H761.271V286.377H764.519V287.189H767.767V286.377H771.015V287.189H774.263V286.377H777.511V287.189H780.759V286.377H784.007V287.189H787.255V286.377H790.503V287.189H793.75V286.377H796.998V287.189H800.246V286.377H803.494V287.189H806.742V286.377H809.99V287.189H813.238V286.377H816.486V287.189H819.734V286.377H822.982V287.189H826.23V286.377H829.478V287.189H832.726V286.377H835.974V287.189H839.222V286.377H842.47V287.189H845.718V286.377H848.966V287.189H852.214V286.377H855.462V287.189H858.71V286.377H861.957V287.189H865.205V286.377H868.453V287.189H871.701V286.377H874.949V287.189H878.197V286.377H881.445V287.189H884.693V286.377H887.941V287.189H891.189V286.377H894.437V287.189H897.685V286.377H900.933V287.189H904.181V286.377H907.429V287.189H910.677V286.377H913.925V287.189H917.173V286.377H920.421V287.189H923.669V286.377H926.917V287.189H930.165V286.377H933.412V287.189H936.66V286.377H939.908V287.189H943.156V286.377H946.404V287.189H949.652V286.377H952.9V287.189H956.148V286.377H959.396V287.189H962.644V286.377H965.892V287.189H969.14V286.377H972.388V287.189H975.636V286.377H978.884V287.189H982.132V286.377H985.38V287.189H988.628V286.377H991.876V287.189H995.124V286.377H998.372V287.189H1001.62V286.377H1004.87V287.189H1008.12V286.377H1011.36V287.189H1014.61V286.377H1017.86V287.189H1021.11V286.377H1024.36V287.189H1027.6V286.377H1030.85V287.189H1034.1V286.377H1037.35V287.189H1040.6V286.377H1043.84V287.189H1045.47C1046.01 287.189 1046.54 287.225 1047.06 287.292L1047.16 286.487C1048.31 286.636 1049.41 286.935 1050.44 287.363L1050.13 288.114C1051.12 288.525 1052.05 289.062 1052.89 289.707L1053.38 289.063C1054.28 289.755 1055.09 290.562 1055.78 291.462L1055.14 291.958C1055.78 292.796 1056.32 293.721 1056.73 294.712L1057.48 294.4C1057.91 295.433 1058.21 296.532 1058.36 297.678L1057.55 297.784C1057.62 298.304 1057.65 298.836 1057.65 299.376V300.973H1058.47V304.165H1057.65V307.358H1058.47V310.551H1057.65V313.743H1058.47V316.936H1057.65V320.128H1058.47V323.321H1057.65V326.514H1058.47V329.706H1057.65V332.899H1058.47V336.092H1057.65V339.284H1058.47V342.477H1057.65V345.67H1058.47V348.862H1057.65V352.055H1058.47V355.248H1057.65V358.44H1058.47V361.633H1057.65V364.826H1058.47V368.018H1057.65V371.211H1058.47V374.403H1057.65V377.596H1058.47V380.789H1057.65V383.981H1058.47V387.174H1057.65V390.367H1058.47V393.559H1057.65V396.752H1058.47V399.945H1057.65V403.137H1058.47V406.33H1057.65V409.523H1058.47V412.715H1057.65V415.908H1058.47V419.101H1057.65V422.293H1058.47V425.486H1057.65V428.679H1058.47V431.871H1057.65V435.064H1058.47V438.256H1057.65V441.449H1058.47V444.642H1057.65V447.834H1058.47V451.027H1057.65V452.623C1057.65 453.164 1057.62 453.695 1057.55 454.216L1058.36 454.321C1058.21 455.468 1057.91 456.567 1057.48 457.599L1056.73 457.288C1056.32 458.278 1055.78 459.203 1055.14 460.042L1055.78 460.537C1055.09 461.438 1054.28 462.245 1053.38 462.937L1052.89 462.293C1052.05 462.937 1051.12 463.475 1050.13 463.886L1050.44 464.636C1049.41 465.064 1048.31 465.363 1047.16 465.513L1047.06 464.707C1046.54 464.775 1046.01 464.81 1045.47 464.81H1043.85V465.623H1040.6V464.81H1037.35V465.623H1034.1V464.81H1030.85V465.623H1027.61V464.81H1024.36V465.623H1021.11V464.81H1017.86V465.623H1014.61V464.81H1011.37V465.623H1008.12V464.81H1004.87V465.623H1001.62V464.81H998.374V465.623H995.126V464.81H991.878V465.623H988.63V464.81H985.382V465.623H982.134V464.81H978.886V465.623H975.638V464.81H972.39V465.623H969.142V464.81H965.894V465.623H962.646V464.81H959.398V465.623H956.15V464.81H952.902V465.623H949.654V464.81H946.406V465.623H943.158V464.81H939.91V465.623H936.662V464.81H933.414V465.623H930.166V464.81H926.918V465.623H923.67V464.81H920.422V465.623H917.174V464.81H913.926V465.623H910.678V464.81H907.43V465.623H904.182V464.81H900.934V465.623H897.686V464.81H894.438V465.623H891.19V464.81H887.943V465.623H884.695V464.81H881.447V465.623H878.199V464.81H874.951V465.623H871.703V464.81H868.455V465.623H865.207V464.81H861.959V465.623H858.711V464.81H855.463V465.623H852.215V464.81H848.967V465.623H845.719V464.81H842.471V465.623H839.223V464.81H835.975V465.623H832.727V464.81H829.479V465.623H826.231V464.81H822.983V465.623H819.735V464.81H816.487V465.623H813.239V464.81H809.991V465.623H806.743V464.81H803.495V465.623H800.247V464.81H796.999V465.623H793.751V464.81H790.503V465.623H787.255V464.81H784.007V465.623H780.759V464.81H777.511V465.623H774.263V464.81H771.015V465.623H767.767V464.81H764.519V465.623H761.271V464.81H758.023V465.623H754.775V464.81H751.527V465.623H748.279V464.81H745.031V465.623H741.783V464.81H738.535V465.623H735.287V464.81H732.039V465.623H728.791V464.81H725.543V465.623H722.295V464.81H719.047V465.623H715.799V464.81H712.551V465.623H709.303V464.81H706.055V465.623H702.807V464.81H699.559V465.623H696.311V464.81H693.063V465.623H689.815V464.81H686.567V465.623H683.319V464.81H680.071V465.623H676.823V464.81H673.575V465.623H670.327V464.81H667.079V465.623H663.831V464.81H660.583V465.623H657.336V464.81H654.088V465.623H650.84V464.81H647.592V465.623H644.344V464.81H641.096V465.623H637.848V464.81H634.6V465.623H631.352V464.81H628.104V465.623H624.856V464.81H621.608V465.623H618.36V464.81H615.112V465.623H611.864V464.81H608.616V465.623H605.368V464.81H602.12V465.623H598.872V464.81H595.624V465.623H592.376V464.81H589.128V465.623H585.88V464.81H582.633V465.623H579.385V464.81H576.137V465.623H572.889V464.81H569.641V465.623H566.393V464.81H563.145V465.623H559.897V464.81H556.649V465.623H553.401V464.81H550.153V465.623H546.905V464.81H543.657V465.623H540.409V464.81H537.161V465.623H533.913V464.81H530.665V465.623H527.417V464.81H524.169V465.623H520.921V464.81H517.673V465.623H514.425V464.81H511.177V465.623H507.93V464.81H504.682V465.623H501.434V464.81H498.186V465.623H494.938V464.81H491.69V465.623H488.442V464.81H485.194V465.623H481.946V464.81H478.698V465.623H475.45V464.81H472.202V465.623H468.954V464.81H465.706V465.623H462.458V464.81H459.21V465.623H455.962V464.81H452.714V465.623H449.466V464.81H446.218V465.623H442.97V464.81H439.722V465.623H436.475V464.81H433.227V465.623H429.979V464.81H426.731V465.623H423.483V464.81H420.235V465.623H416.987V464.81H413.739V465.623H410.491V464.81H407.243V465.623H403.995V464.81H400.747V465.623H397.499V464.81H394.251V465.623H391.003V464.81H387.755V465.623H384.507V464.81H381.259V465.623H378.011V464.81H374.763V465.623H371.515V464.81H368.267V465.623H365.02V464.81H361.772V465.623H358.524V464.81H355.276V465.623H352.028V464.81H348.78V465.623H345.532V464.81H342.284V465.623H339.036V464.81H335.788V465.623H332.54V464.81H329.292V465.623H326.044V464.81H322.796V465.623H319.548V464.81H316.3V465.623H313.052V464.81H309.804V465.623H306.556V464.81H303.308V465.623H300.06V464.81H296.812V465.623H293.564V464.81H290.317V465.623H287.069V464.81H283.821V465.623H280.573V464.81H277.325V465.623H274.077V464.81H270.829V465.623H267.581V464.81H264.333V465.623H261.085V464.81H257.837V465.623H254.589V464.81H251.341V465.623H248.093V464.81H244.845V465.623H241.597V464.81H238.349V465.623H235.101V464.81H231.853V465.623H228.605V464.81H225.357V465.623H222.109V464.81H218.862V465.623H215.614V464.81H212.366V465.623H209.118V464.81H205.87V465.623H202.622V464.81H199.374V465.623H196.126V464.81H192.878V465.623H189.63V464.81H186.382V465.623H183.134V464.81H179.886V465.623H176.638V464.81H173.39V465.623H170.142V464.81H166.894V465.623H163.646V464.81H160.398V465.623H157.15V464.81H153.902V465.623H150.654V464.81H147.406V465.623H144.158V464.81H142.534C141.994 464.81 141.463 464.775 140.942 464.707L140.837 465.513C139.69 465.363 138.591 465.064 137.559 464.636L137.87 463.886C136.879 463.475 135.955 462.937 135.116 462.293L134.621 462.937C133.72 462.245 132.913 461.438 132.221 460.537L132.865 460.042C132.22 459.203 131.683 458.278 131.272 457.288L130.522 457.599Z" stroke="white" stroke-opacity="0.3" stroke-width="1.62492" stroke-dasharray="3.25 3.25"/>
<g opacity="0.5">
<path d="M181.715 390.912L177.425 393.874H182.638H212.926H218.139L213.849 390.912C212.281 389.829 209.762 388.753 206.96 387.949C204.134 387.138 200.877 386.562 197.782 386.562C194.687 386.562 191.43 387.138 188.604 387.949C185.802 388.753 183.283 389.829 181.715 390.912ZM176.658 393.061C176.658 391.764 177.294 390.509 178.621 389.283C179.959 388.047 181.891 386.952 184.16 386.043C188.7 384.225 194.182 383.312 197.782 383.312C201.382 383.312 206.864 384.225 211.404 386.043C213.673 386.952 215.605 388.047 216.943 389.283C218.27 390.509 218.906 391.764 218.906 393.061V397.124H176.658V393.061ZM207.532 364.625C207.532 370 203.157 374.375 197.782 374.375C192.407 374.375 188.033 370 188.033 364.625C188.033 359.251 192.407 354.876 197.782 354.876C203.157 354.876 207.532 359.251 207.532 364.625ZM204.282 364.625C204.282 361.031 201.377 358.126 197.782 358.126C194.187 358.126 191.282 361.031 191.282 364.625C191.282 368.22 194.187 371.125 197.782 371.125C201.377 371.125 204.282 368.22 204.282 364.625ZM228.655 393.061C228.655 389.647 227.496 386.781 225.649 384.398C228.086 384.976 230.53 385.78 232.634 386.801C236.409 388.633 238.405 390.806 238.405 393.061V397.124H228.655V393.061ZM227.031 364.625C227.031 370 222.656 374.375 217.281 374.375C216.436 374.375 215.623 374.26 214.839 374.046C216.395 371.254 217.281 368.034 217.281 364.625C217.281 361.217 216.395 357.997 214.839 355.205C215.623 354.991 216.436 354.876 217.281 354.876C222.656 354.876 227.031 359.251 227.031 364.625Z" fill="white" stroke="white" stroke-width="3.24983"/>
</g>
<path d="M288.257 343.076H298.28C305.455 343.076 309.277 346.898 309.277 352.631V361.327C309.277 367.333 304.831 370.375 298.241 370.375H288.257V343.076ZM303.505 360.704V353.177C303.505 349.316 301.361 347.834 298.28 347.834H293.951V365.617H298.241C301.945 365.617 303.505 363.667 303.505 360.704ZM324.459 350.252C324.81 350.252 325.239 350.291 325.59 350.33V354.776C325.005 354.581 324.342 354.542 323.991 354.542C321.183 354.542 319.506 356.18 318.765 358.442V370.375H313.188V350.876H318.297V354.269C319.545 351.695 321.69 350.252 324.459 350.252ZM336.31 370.999C330.304 370.999 327.106 367.879 327.106 363.16V358.169C327.106 352.904 330.85 350.252 336.31 350.252C342.276 350.252 345.435 353.411 345.435 358.169V363.16C345.435 368.347 341.769 370.999 336.31 370.999ZM336.31 366.982C339.274 366.982 340.015 365.032 340.015 362.887V358.403C340.015 355.712 338.923 354.269 336.31 354.269C333.385 354.269 332.527 356.18 332.527 358.403V362.887C332.527 365.617 333.697 366.982 336.31 366.982ZM360.144 350.252C365.135 350.252 367.28 353.294 367.28 357.896V363.277C367.28 368.542 364.472 370.999 360.144 370.999C357.687 370.999 355.815 370.18 354.528 368.581V377.863H348.873V350.876H353.787V353.723C355.074 351.344 357.297 350.252 360.144 350.252ZM361.664 362.848V358.325C361.664 355.751 360.573 354.269 358.194 354.269C356.361 354.269 355.113 355.322 354.528 356.921V364.486C355.191 366.085 356.595 366.982 358.194 366.982C360.456 366.982 361.664 365.656 361.664 362.848ZM387.571 370.999C381.565 370.999 378.367 367.879 378.367 363.16V358.169C378.367 352.904 382.111 350.252 387.571 350.252C393.537 350.252 396.696 353.411 396.696 358.169V363.16C396.696 368.347 393.03 370.999 387.571 370.999ZM387.571 366.982C390.535 366.982 391.276 365.032 391.276 362.887V358.403C391.276 355.712 390.184 354.269 387.571 354.269C384.646 354.269 383.788 356.18 383.788 358.403V362.887C383.788 365.617 384.958 366.982 387.571 366.982ZM411.405 350.252C411.756 350.252 412.185 350.291 412.536 350.33V354.776C411.951 354.581 411.288 354.542 410.937 354.542C408.129 354.542 406.452 356.18 405.711 358.442V370.375H400.134V350.876H405.243V354.269C406.491 351.695 408.636 350.252 411.405 350.252ZM430.695 370.999C425.118 370.999 422.038 368.425 422.038 364.642H427.029C427.029 366.397 428.55 367.099 430.461 367.099C432.645 367.099 433.62 366.163 433.62 364.798C433.62 363.082 431.982 362.77 429.33 362.185C424.299 361.171 422.467 359.534 422.467 356.258C422.467 352.436 425.781 350.252 430.539 350.252C435.765 350.252 438.612 352.709 438.612 356.336H433.581C433.581 354.737 432.528 354.113 430.812 354.113C428.784 354.113 427.965 355.01 427.965 356.18C427.965 357.701 429.408 357.935 431.67 358.481C435.375 359.339 439.002 360.431 439.002 364.837C439.002 368.854 435.609 370.999 430.695 370.999ZM459.265 357.974V361.405H446.551V362.965C446.551 364.057 446.59 367.177 450.373 367.177C452.947 367.177 454 365.968 454 364.135H459.031C459.031 368.776 455.794 370.999 450.139 370.999C444.172 370.999 441.13 367.879 441.13 363.16V358.247C441.13 352.904 444.796 350.252 450.178 350.252C456.106 350.252 459.265 353.333 459.265 357.974ZM450.334 354.074C446.941 354.074 446.551 356.453 446.551 358.364V358.52H454.078V358.208C454.078 356.024 453.337 354.074 450.334 354.074ZM468.012 370.375H462.63V343.076H468.012V370.375ZM489.579 357.974V361.405H476.866V362.965C476.866 364.057 476.905 367.177 480.688 367.177C483.262 367.177 484.315 365.968 484.315 364.135H489.345C489.345 368.776 486.109 370.999 480.454 370.999C474.487 370.999 471.445 367.879 471.445 363.16V358.247C471.445 352.904 475.111 350.252 480.493 350.252C486.421 350.252 489.579 353.333 489.579 357.974ZM480.649 354.074C477.256 354.074 476.866 356.453 476.866 358.364V358.52H484.393V358.208C484.393 356.024 483.652 354.074 480.649 354.074ZM501.173 370.999C495.051 370.999 492.087 367.879 492.087 363.16V358.169C492.087 352.787 495.792 350.252 501.134 350.252C506.75 350.252 509.714 353.255 509.714 357.818H504.644C504.644 355.166 503.123 354.269 501.329 354.269C498.326 354.269 497.586 356.258 497.586 358.403V362.848C497.586 365.734 498.911 366.982 501.329 366.982C503.435 366.982 504.605 365.851 504.605 364.096H509.714C509.714 368.776 506.009 370.999 501.173 370.999ZM522.222 366.982C522.651 366.982 523.197 366.943 523.899 366.826V370.726C523.158 370.882 522.339 370.999 520.779 370.999C513.838 370.999 513.838 366.319 513.838 363.355V354.581H510.757V350.876H513.838V344.714H519.297V350.876H523.548V354.581H519.297V362.926C519.297 364.837 519.297 366.982 522.222 366.982ZM543.523 350.252C549.255 350.252 552.063 353.255 552.063 357.896V370.375H547.072V368.035C545.824 370.024 543.796 370.999 540.949 370.999C535.996 370.999 533.968 368.308 533.968 364.525C533.968 360.08 537.127 358.403 541.534 358.403C543.679 358.403 545.356 358.871 546.643 359.885V358.13C546.643 357.077 546.604 354.269 543.367 354.269C541.222 354.269 540.286 355.322 540.286 356.921H534.904C534.904 352.436 538.531 350.252 543.523 350.252ZM543.094 367.177C544.771 367.177 545.98 366.397 546.643 365.227V362.77C545.863 361.639 544.615 361.015 542.938 361.015C540.247 361.015 539.428 362.263 539.428 364.057C539.428 366.397 540.949 367.177 543.094 367.177ZM576.902 364.135V350.876H582.44V370.375H577.37V367.333C576.083 369.829 573.938 370.999 570.975 370.999C566.295 370.999 564.384 367.918 564.384 364.213V350.876H569.883V363.55C569.883 364.252 569.844 366.865 572.924 366.865C574.952 366.865 576.317 365.773 576.902 364.135ZM593.999 370.999C588.422 370.999 585.342 368.425 585.342 364.642H590.333C590.333 366.397 591.854 367.099 593.765 367.099C595.949 367.099 596.924 366.163 596.924 364.798C596.924 363.082 595.286 362.77 592.634 362.185C587.603 361.171 585.771 359.534 585.771 356.258C585.771 352.436 589.085 350.252 593.843 350.252C599.069 350.252 601.916 352.709 601.916 356.336H596.885C596.885 354.737 595.832 354.113 594.116 354.113C592.088 354.113 591.269 355.01 591.269 356.18C591.269 357.701 592.712 357.935 594.974 358.481C598.679 359.339 602.306 360.431 602.306 364.837C602.306 368.854 598.913 370.999 593.999 370.999ZM622.569 357.974V361.405H609.855V362.965C609.855 364.057 609.894 367.177 613.677 367.177C616.251 367.177 617.304 365.968 617.304 364.135H622.335C622.335 368.776 619.098 370.999 613.443 370.999C607.476 370.999 604.434 367.879 604.434 363.16V358.247C604.434 352.904 608.1 350.252 613.482 350.252C619.41 350.252 622.569 353.333 622.569 357.974ZM613.638 354.074C610.245 354.074 609.855 356.453 609.855 358.364V358.52H617.382V358.208C617.382 356.024 616.641 354.074 613.638 354.074ZM637.204 350.252C637.555 350.252 637.984 350.291 638.335 350.33V354.776C637.75 354.581 637.087 354.542 636.736 354.542C633.929 354.542 632.252 356.18 631.511 358.442V370.375H625.934V350.876H631.043V354.269C632.291 351.695 634.435 350.252 637.204 350.252ZM660.512 350.252C664.841 350.252 667.648 352.709 667.648 357.974V363.355C667.648 367.957 665.503 370.999 660.512 370.999C657.665 370.999 655.442 369.907 654.155 367.528V370.375H649.241V343.076H654.896V352.67C656.183 351.071 658.055 350.252 660.512 350.252ZM662.033 362.926V358.403C662.033 355.595 660.824 354.269 658.562 354.269C656.963 354.269 655.559 355.166 654.896 356.765V364.369C655.481 365.968 656.729 366.982 658.562 366.982C660.941 366.982 662.033 365.578 662.033 362.926ZM679.559 350.252C685.291 350.252 688.099 353.255 688.099 357.896V370.375H683.107V368.035C681.859 370.024 679.832 370.999 676.985 370.999C672.032 370.999 670.004 368.308 670.004 364.525C670.004 360.08 673.163 358.403 677.57 358.403C679.715 358.403 681.391 358.871 682.678 359.885V358.13C682.678 357.077 682.639 354.269 679.403 354.269C677.258 354.269 676.322 355.322 676.322 356.921H670.94C670.94 352.436 674.567 350.252 679.559 350.252ZM679.13 367.177C680.807 367.177 682.015 366.397 682.678 365.227V362.77C681.898 361.639 680.651 361.015 678.974 361.015C676.283 361.015 675.464 362.263 675.464 364.057C675.464 366.397 676.985 367.177 679.13 367.177ZM699.263 370.999C693.687 370.999 690.606 368.425 690.606 364.642H695.597C695.597 366.397 697.118 367.099 699.029 367.099C701.213 367.099 702.188 366.163 702.188 364.798C702.188 363.082 700.55 362.77 697.898 362.185C692.868 361.171 691.035 359.534 691.035 356.258C691.035 352.436 694.349 350.252 699.107 350.252C704.333 350.252 707.18 352.709 707.18 356.336H702.149C702.149 354.737 701.096 354.113 699.38 354.113C697.352 354.113 696.533 355.01 696.533 356.18C696.533 357.701 697.976 357.935 700.238 358.481C703.943 359.339 707.57 360.431 707.57 364.837C707.57 368.854 704.177 370.999 699.263 370.999ZM727.833 357.974V361.405H715.119V362.965C715.119 364.057 715.158 367.177 718.941 367.177C721.515 367.177 722.568 365.968 722.568 364.135H727.599C727.599 368.776 724.362 370.999 718.707 370.999C712.74 370.999 709.699 367.879 709.699 363.16V358.247C709.699 352.904 713.364 350.252 718.746 350.252C724.674 350.252 727.833 353.333 727.833 357.974ZM718.902 354.074C715.509 354.074 715.119 356.453 715.119 358.364V358.52H722.646V358.208C722.646 356.024 721.905 354.074 718.902 354.074ZM740.856 350.876V350.33C740.856 347.405 740.895 342.452 747.876 342.452C749.007 342.452 749.982 342.53 750.918 342.764V346.469C750.099 346.313 749.67 346.274 749.163 346.274C746.433 346.274 746.394 348.302 746.394 350.33V350.876H750.45V354.581H746.394V370.375H740.856V354.581H738.048V350.876H740.856ZM752.945 347.99V342.647H758.756V347.99H752.945ZM758.6 370.375H753.14V350.876H758.6V370.375ZM768.304 370.375H762.922V343.076H768.304V370.375ZM789.871 357.974V361.405H777.158V362.965C777.158 364.057 777.197 367.177 780.98 367.177C783.554 367.177 784.607 365.968 784.607 364.135H789.637C789.637 368.776 786.401 370.999 780.746 370.999C774.779 370.999 771.737 367.879 771.737 363.16V358.247C771.737 352.904 775.403 350.252 780.785 350.252C786.713 350.252 789.871 353.333 789.871 357.974ZM780.941 354.074C777.548 354.074 777.158 356.453 777.158 358.364V358.52H784.685V358.208C784.685 356.024 783.944 354.074 780.941 354.074Z" fill="#FDFDFE"/>
<path opacity="0.7" d="M289.171 416.93C288.629 416.93 288.172 416.743 287.8 416.371C287.427 415.999 287.241 415.542 287.241 415C287.241 414.458 287.427 414.001 287.8 413.629C288.172 413.257 288.629 413.07 289.171 413.07C289.712 413.07 290.169 413.257 290.542 413.629C290.914 414.001 291.1 414.458 291.1 415C291.1 415.542 290.914 415.999 290.542 416.371C290.169 416.743 289.712 416.93 289.171 416.93ZM296.749 416.625C296.208 416.625 295.734 416.447 295.328 416.092C294.921 415.728 294.718 415.271 294.718 414.721V404.692H292.509V402.915H294.718V400.046L296.851 399.589V402.915H299.568V404.692H296.851V414.15C296.851 414.429 296.889 414.615 296.965 414.708C297.05 414.801 297.223 414.848 297.486 414.848H299.58V416.625H296.749ZM301.218 416.625L306.524 409.516L301.7 402.915H304.163L307.883 408.132L311.526 402.915H314.141L309.089 409.516L314.446 416.625H311.704L307.768 411.128L303.757 416.625H301.218ZM319.854 416.625C319.312 416.625 318.838 416.447 318.432 416.092C318.026 415.728 317.823 415.271 317.823 414.721V404.692H315.614V402.915H317.823V400.046L319.955 399.589V402.915H322.672V404.692H319.955V414.15C319.955 414.429 319.993 414.615 320.069 414.708C320.154 414.801 320.328 414.848 320.59 414.848H322.685V416.625H319.854ZM327.052 420.675L326.29 419.583L326.709 419.278C327.183 418.931 327.534 418.584 327.762 418.237C327.991 417.899 328.105 417.509 328.105 417.069V416.473L328.41 416.93C327.885 416.93 327.437 416.752 327.064 416.396C326.7 416.041 326.518 415.593 326.518 415.051C326.518 414.501 326.705 414.044 327.077 413.68C327.449 413.307 327.898 413.121 328.423 413.121C328.727 413.121 329.032 413.197 329.337 413.35C329.65 413.502 329.908 413.756 330.111 414.111C330.323 414.458 330.428 414.932 330.428 415.533C330.428 416.329 330.204 417.141 329.756 417.971C329.315 418.8 328.638 419.541 327.724 420.192L327.052 420.675ZM342.082 416.93C341.54 416.93 341.083 416.743 340.711 416.371C340.339 415.999 340.152 415.542 340.152 415C340.152 414.458 340.339 414.001 340.711 413.629C341.083 413.257 341.54 413.07 342.082 413.07C342.624 413.07 343.081 413.257 343.453 413.629C343.825 414.001 344.012 414.458 344.012 415C344.012 415.542 343.825 415.999 343.453 416.371C343.081 416.743 342.624 416.93 342.082 416.93ZM345.979 416.625L351.286 409.516L346.462 402.915H348.924L352.644 408.132L356.287 402.915H358.902L353.85 409.516L359.207 416.625H356.465L352.53 411.128L348.518 416.625H345.979ZM363.663 416.625C363.121 416.625 362.647 416.447 362.241 416.092C361.835 415.728 361.632 415.271 361.632 414.721V397.583H363.764V414.15C363.764 414.429 363.803 414.615 363.879 414.708C363.963 414.801 364.137 414.848 364.399 414.848H365.732V416.625H363.663ZM373.07 416.93C372.079 416.93 371.178 416.769 370.366 416.447C369.562 416.117 368.893 415.622 368.36 414.962C367.827 414.293 367.471 413.447 367.294 412.423L369.528 411.991C369.621 413.066 369.985 413.866 370.62 414.391C371.263 414.915 372.067 415.178 373.032 415.178C373.988 415.178 374.75 414.937 375.317 414.454C375.884 413.972 376.167 413.384 376.167 412.69C376.167 412.097 375.964 411.628 375.558 411.281C375.16 410.934 374.58 410.688 373.819 410.544L372.156 410.227C371.707 410.142 371.242 410.024 370.759 409.871C370.277 409.719 369.824 409.508 369.401 409.237C368.986 408.966 368.648 408.61 368.385 408.17C368.131 407.73 368.004 407.176 368.004 406.507C368.004 405.61 368.237 404.878 368.703 404.311C369.177 403.736 369.799 403.308 370.569 403.029C371.347 402.75 372.185 402.61 373.082 402.61C374.064 402.61 374.919 402.762 375.647 403.067C376.374 403.372 376.967 403.808 377.424 404.375C377.881 404.942 378.186 405.627 378.338 406.431L375.989 406.901C375.93 406.385 375.791 405.936 375.571 405.555C375.359 405.174 375.046 404.882 374.631 404.679C374.225 404.468 373.696 404.362 373.044 404.362C372.257 404.362 371.58 404.527 371.013 404.857C370.446 405.187 370.163 405.686 370.163 406.355C370.163 406.727 370.256 407.045 370.442 407.307C370.637 407.569 370.924 407.79 371.305 407.967C371.694 408.137 372.181 408.285 372.765 408.412L374.453 408.767C375.164 408.911 375.82 409.127 376.421 409.414C377.022 409.694 377.504 410.083 377.868 410.582C378.232 411.082 378.414 411.742 378.414 412.563C378.414 413.468 378.186 414.251 377.729 414.911C377.28 415.563 376.654 416.062 375.85 416.409C375.054 416.756 374.128 416.93 373.07 416.93ZM381.689 420.675L380.928 419.583L381.347 419.278C381.821 418.931 382.172 418.584 382.4 418.237C382.629 417.899 382.743 417.509 382.743 417.069V416.473L383.048 416.93C382.523 416.93 382.074 416.752 381.702 416.396C381.338 416.041 381.156 415.593 381.156 415.051C381.156 414.501 381.342 414.044 381.715 413.68C382.087 413.307 382.536 413.121 383.06 413.121C383.365 413.121 383.67 413.197 383.974 413.35C384.287 413.502 384.546 413.756 384.749 414.111C384.96 414.458 385.066 414.932 385.066 415.533C385.066 416.329 384.842 417.141 384.393 417.971C383.953 418.8 383.276 419.541 382.362 420.192L381.689 420.675ZM396.72 416.93C396.178 416.93 395.721 416.743 395.349 416.371C394.976 415.999 394.79 415.542 394.79 415C394.79 414.458 394.976 414.001 395.349 413.629C395.721 413.257 396.178 413.07 396.72 413.07C397.261 413.07 397.718 413.257 398.091 413.629C398.463 414.001 398.649 414.458 398.649 415C398.649 415.542 398.463 415.999 398.091 416.371C397.718 416.743 397.261 416.93 396.72 416.93ZM402.382 421.576V402.915H404.387V405.771L404.324 405.568C404.696 404.569 405.314 403.829 406.177 403.346C407.041 402.856 407.959 402.61 408.932 402.61C410.049 402.61 411.031 402.902 411.877 403.486C412.724 404.07 413.384 404.899 413.858 405.974C414.332 407.049 414.568 408.318 414.568 409.783C414.568 411.247 414.327 412.516 413.845 413.591C413.371 414.657 412.711 415.482 411.865 416.066C411.018 416.642 410.041 416.93 408.932 416.93C408.035 416.93 407.146 416.705 406.266 416.257C405.386 415.808 404.722 415.051 404.273 413.985L404.464 413.883V421.576H402.382ZM408.348 415.152C409.482 415.152 410.413 414.687 411.141 413.756C411.869 412.817 412.233 411.475 412.233 409.732C412.233 408.039 411.881 406.727 411.179 405.796C410.477 404.857 409.541 404.387 408.373 404.387C407.663 404.387 407.007 404.574 406.406 404.946C405.813 405.318 405.339 405.898 404.984 406.685C404.629 407.472 404.451 408.488 404.451 409.732C404.451 411.568 404.832 412.931 405.593 413.819C406.355 414.708 407.273 415.152 408.348 415.152ZM423.239 416.93C422.13 416.93 421.149 416.638 420.294 416.054C419.447 415.47 418.787 414.64 418.313 413.566C417.839 412.491 417.602 411.221 417.602 409.757C417.602 408.293 417.839 407.028 418.313 405.961C418.796 404.887 419.46 404.062 420.306 403.486C421.153 402.902 422.13 402.61 423.239 402.61C424.136 402.61 425.025 402.834 425.905 403.283C426.785 403.731 427.449 404.489 427.898 405.555L427.657 405.657V397.583H429.789V416.625H427.784V413.769L427.847 413.972C427.475 414.97 426.857 415.715 425.994 416.206C425.13 416.688 424.212 416.93 423.239 416.93ZM423.797 415.152C424.517 415.152 425.173 414.966 425.765 414.594C426.358 414.221 426.832 413.642 427.187 412.855C427.542 412.059 427.72 411.044 427.72 409.808C427.72 407.963 427.339 406.6 426.578 405.72C425.816 404.832 424.898 404.387 423.823 404.387C422.689 404.387 421.758 404.857 421.03 405.796C420.302 406.727 419.938 408.065 419.938 409.808C419.938 411.501 420.29 412.817 420.992 413.756C421.694 414.687 422.63 415.152 423.797 415.152ZM434.867 416.625V400.427C434.867 399.403 435.108 398.675 435.591 398.243C436.073 397.803 436.881 397.583 438.015 397.583H439.729V399.36H437.711C437.457 399.36 437.275 399.415 437.165 399.525C437.055 399.635 437 399.817 437 400.071V416.625H434.867ZM432.823 404.692V402.915H440.072V404.692H432.823Z" fill="#FDFDFE"/>
<rect x="856.523" y="343.021" width="152.943" height="65.958" rx="31.5848" fill="#515253"/>
<path d="M891.593 383.5L897.515 368.051H901.731L907.632 383.5H904.07L899.607 370.454L895.155 383.5H891.593ZM895.466 379.273V376.623H903.727V379.273H895.466ZM913.071 383.779C912.106 383.779 911.265 383.536 910.55 383.049C909.835 382.563 909.284 381.866 908.898 380.957C908.512 380.049 908.318 378.958 908.318 377.685C908.318 376.412 908.512 375.325 908.898 374.424C909.291 373.515 909.845 372.825 910.561 372.353C911.276 371.874 912.131 371.634 913.125 371.634C913.976 371.634 914.734 371.831 915.399 372.224C916.072 372.618 916.619 373.265 917.041 374.166L916.708 374.188V367.407H919.905V383.5H916.88V381.172L916.912 381.333C916.526 382.17 916 382.788 915.335 383.189C914.67 383.582 913.915 383.779 913.071 383.779ZM914.241 381.365C914.741 381.365 915.188 381.233 915.582 380.968C915.975 380.703 916.286 380.299 916.515 379.756C916.751 379.212 916.869 378.536 916.869 377.728C916.869 376.505 916.619 375.586 916.118 374.971C915.617 374.356 914.999 374.048 914.262 374.048C913.49 374.048 912.867 374.374 912.395 375.024C911.93 375.675 911.698 376.584 911.698 377.75C911.698 378.887 911.923 379.774 912.374 380.41C912.832 381.047 913.454 381.365 914.241 381.365ZM926.868 383.779C925.902 383.779 925.062 383.536 924.347 383.049C923.632 382.563 923.081 381.866 922.695 380.957C922.308 380.049 922.115 378.958 922.115 377.685C922.115 376.412 922.308 375.325 922.695 374.424C923.088 373.515 923.642 372.825 924.358 372.353C925.073 371.874 925.928 371.634 926.922 371.634C927.773 371.634 928.531 371.831 929.196 372.224C929.868 372.618 930.416 373.265 930.838 374.166L930.505 374.188V367.407H933.702V383.5H930.677V381.172L930.709 381.333C930.323 382.17 929.797 382.788 929.132 383.189C928.467 383.582 927.712 383.779 926.868 383.779ZM928.037 381.365C928.538 381.365 928.985 381.233 929.379 380.968C929.772 380.703 930.083 380.299 930.312 379.756C930.548 379.212 930.666 378.536 930.666 377.728C930.666 376.505 930.416 375.586 929.915 374.971C929.414 374.356 928.796 374.048 928.059 374.048C927.286 374.048 926.664 374.374 926.192 375.024C925.727 375.675 925.495 376.584 925.495 377.75C925.495 378.887 925.72 379.774 926.171 380.41C926.628 381.047 927.251 381.365 928.037 381.365ZM941.824 383.5V370.186C941.824 369.227 942.067 368.527 942.553 368.083C943.04 367.633 943.826 367.407 944.913 367.407H947.209V369.746H945.589C945.368 369.746 945.217 369.789 945.139 369.875C945.06 369.961 945.021 370.118 945.021 370.347V383.5H941.824ZM940.289 374.252V371.913H947.199V374.252H940.289ZM949.28 383.5V371.913H952.477V383.5H949.28ZM950.879 370.529C950.242 370.529 949.731 370.336 949.344 369.95C948.958 369.564 948.765 369.052 948.765 368.416C948.765 367.772 948.958 367.261 949.344 366.882C949.731 366.495 950.242 366.302 950.879 366.302C951.522 366.302 952.034 366.495 952.413 366.882C952.799 367.261 952.992 367.772 952.992 368.416C952.992 369.052 952.799 369.564 952.413 369.95C952.034 370.336 951.522 370.529 950.879 370.529ZM958.045 383.5C957.187 383.5 956.525 383.293 956.06 382.878C955.603 382.456 955.374 381.851 955.374 381.065V367.407H958.571V380.56C958.571 380.796 958.603 380.957 958.667 381.043C958.739 381.122 958.886 381.161 959.107 381.161H959.998V383.5H958.045ZM967.229 383.779C966.092 383.779 965.069 383.532 964.16 383.039C963.259 382.545 962.544 381.844 962.015 380.936C961.493 380.02 961.232 378.94 961.232 377.696C961.232 376.459 961.489 375.386 962.004 374.477C962.526 373.569 963.234 372.868 964.128 372.375C965.029 371.881 966.056 371.634 967.207 371.634C967.844 371.634 968.488 371.731 969.138 371.924C969.796 372.117 970.401 372.46 970.952 372.954C971.502 373.44 971.946 374.123 972.282 375.003C972.618 375.876 972.786 376.991 972.786 378.35H963.281V376.526H969.932L969.6 377.095C969.543 376.323 969.4 375.7 969.171 375.228C968.942 374.756 968.652 374.413 968.302 374.198C967.951 373.984 967.558 373.877 967.121 373.877C966.556 373.877 966.084 374.037 965.705 374.359C965.326 374.681 965.04 375.132 964.847 375.711C964.661 376.283 964.568 376.948 964.568 377.707C964.568 378.851 964.783 379.756 965.212 380.421C965.648 381.086 966.313 381.419 967.207 381.419C967.787 381.419 968.284 381.268 968.699 380.968C969.121 380.668 969.442 380.21 969.664 379.595L972.561 380.335C972.289 381.136 971.878 381.791 971.327 382.298C970.776 382.806 970.143 383.182 969.428 383.425C968.72 383.661 967.987 383.779 967.229 383.779Z" fill="#FDFDFE"/>
<defs>
<linearGradient id="paint0_linear_2131_40251" x1="1" y1="1" x2="297.878" y2="682.461" gradientUnits="userSpaceOnUse">
<stop stop-color="white"/>
<stop offset="1" stop-color="white" stop-opacity="0"/>
</linearGradient>
</defs>
</svg>