<svg width="595" height="276" viewBox="0 0 595 276" fill="none" xmlns="http://www.w3.org/2000/svg">
<path d="M595 0H0V276H595V0Z" fill="white"/>
<path d="M341.72 58.23H337.53V62.41H341.72V58.23Z" fill="#3F3F3F"/>
<path d="M428.81 110.2H424.62V114.38H428.81V110.2Z" fill="#3F3F3F"/>
<path d="M475.53 105.72C476.56 105.23 477.39 104.53 478.02 103.6C478.65 102.68 479.09 101.56 479.35 100.26C479.61 98.9498 479.74 97.4798 479.74 95.8498V66.5898H475.55V95.8498C475.55 97.0298 475.49 98.0298 475.37 98.8498C475.25 99.6698 475.04 100.33 474.74 100.84C474.44 101.34 474.04 101.71 473.54 101.94C473.03 102.17 472.38 102.28 471.58 102.28C471.2 102.28 470.86 102.26 470.59 102.23C470.31 102.2 469.93 102.11 469.44 101.97L468.34 105.99C469.49 106.31 470.63 106.46 471.74 106.46C473.23 106.45 474.5 106.21 475.53 105.72Z" fill="#3F3F3F"/>
<path d="M461.13 59.18H455.38V58.21C455.38 57.68 455.49 57.27 455.72 56.98C455.91 56.74 456.36 56.62 457.01 56.62H459.89V53.71H456.94C455.34 53.71 454.09 54.13 453.25 54.96C452.4 55.79 451.97 57.15 451.97 58.98V62.39H461.14V59.18H461.13Z" fill="#3F3F3F"/>
<path d="M420.43 110.2H416.24V114.38H420.43V110.2Z" fill="#3F3F3F"/>
<path d="M350.1 58.23H345.91V62.41H350.1V58.23Z" fill="#3F3F3F"/>
<path d="M442.26 91.6398C443.85 92.7698 445.69 93.6098 447.78 94.1498C449.87 94.6898 452.09 94.9598 454.43 94.9598H455.54L456.95 92.0098V96.1599C456.95 98.3499 456.32 99.9198 455.07 100.86C453.81 101.8 452.05 102.27 449.78 102.27C448.49 102.27 447.33 102.15 446.3 101.9C445.27 101.66 444.09 101.24 442.77 100.65L441.46 104.67C443.06 105.26 444.49 105.71 445.73 106C446.97 106.3 448.22 106.44 449.47 106.44C453.55 106.44 456.52 105.47 458.37 103.54C460.22 101.6 461.14 98.9999 461.14 95.7299V66.5898H454.44C451.86 66.5898 449.5 66.9598 447.37 67.6898C445.24 68.4198 443.42 69.4198 441.9 70.6898C440.38 71.9598 439.2 73.4798 438.37 75.2398C437.53 76.9998 437.11 78.9098 437.11 80.9598C437.11 83.4298 437.57 85.5498 438.5 87.3098C439.41 89.0598 440.67 90.5098 442.26 91.6398ZM442.26 76.8298C442.9 75.5798 443.76 74.5099 444.82 73.6199C445.88 72.7299 447.1 72.0498 448.46 71.5598C449.78 71.0898 451.15 70.8498 452.57 70.8398V70.8298H459.34L456.95 72.0198V90.7898H452.71C451.14 90.7898 449.67 90.5698 448.29 90.1298C446.91 89.6998 445.7 89.0598 444.65 88.2198C443.6 87.3798 442.78 86.3598 442.19 85.1398C441.6 83.9198 441.3 82.5298 441.3 80.9598C441.29 79.4598 441.61 78.0798 442.26 76.8298Z" fill="#3F3F3F"/>
<path d="M338.67 105.87H347.37V102.74C347.45 102.89 347.54 103.04 347.63 103.17C348.26 104.09 349.09 104.8 350.12 105.29C351.15 105.78 352.41 106.02 353.91 106.02H430.26V66.5898H426.07V101.85H421.72H354.06C353.26 101.85 352.6 101.74 352.1 101.51C351.6 101.28 351.19 100.92 350.9 100.41C350.61 99.8999 350.4 99.2398 350.27 98.4198C350.15 97.5998 350.09 96.5998 350.09 95.4198V66.5898H338.77C327.19 66.5898 319.31 75.7599 319.31 86.2299V86.3398C319.32 96.8098 327.09 105.87 338.67 105.87ZM323.78 86.1199C323.78 77.4899 329.98 70.5499 338.67 70.5499H348.47L345.9 71.8298V95.4198C345.9 97.0598 346.03 98.5298 346.29 99.8298C346.44 100.59 346.66 101.28 346.94 101.91H338.77C330.07 101.91 323.77 94.8599 323.77 86.2299V86.1199H323.78Z" fill="#3F3F3F"/>
<path d="M298.37 95.49L300.2 100.31L273.6 66.54H269.45V105.79H273.77V76.21L271.31 70.49L299.16 105.79H302.7V66.54H298.37V95.49Z" fill="#3F3F3F"/>
<path d="M358.01 168.49L382.15 145.48V129.7H317.63V147.67H350.71L362.98 139.79L332.35 170.54L335.63 183.88H344.36C356.09 183.88 363.05 188.24 363.05 196V196.27C363.05 203.35 357.46 207.84 349.55 207.84C339.87 207.84 333.05 203.76 326.5 196.4L312.04 210.15C320.22 219.82 332.09 226.62 349.28 226.62C370.56 226.62 383.65 213.41 383.65 195.44V195.17C383.66 177.48 370.97 170.67 358.01 168.49Z" fill="#3F3F3F"/>
<path d="M242.19 65.8699C230.23 65.8699 222.08 75.3399 222.08 86.1699V86.2799C222.08 97.0999 230.11 106.46 242.08 106.46C254.05 106.46 262.19 96.9899 262.19 86.1699V86.0599C262.18 75.2299 254.15 65.8699 242.19 65.8699ZM257.58 86.2799C257.58 95.1899 251.18 102.37 242.19 102.37C233.2 102.37 226.69 95.0799 226.69 86.1699V86.0599C226.69 77.1499 233.1 69.9699 242.08 69.9699C251.07 69.9699 257.58 77.2599 257.58 86.1699V86.2799Z" fill="#3F3F3F"/>
<path d="M439.95 128.06C410.49 128.06 389.07 150.25 389.07 177.34V177.61C389.07 204.7 410.21 226.62 439.67 226.62C469.13 226.62 490.55 204.43 490.55 177.34V177.07C490.56 149.98 469.41 128.06 439.95 128.06ZM468.6 177.61C468.6 193.95 456.87 207.29 439.95 207.29C423.04 207.29 411.03 193.68 411.03 177.34V177.07C411.03 160.73 422.76 147.39 439.67 147.39C456.58 147.39 468.59 161 468.59 177.34V177.61H468.6Z" fill="#3F3F3F"/>
<path d="M214.42 66.54H209.98V105.78H214.42V66.54Z" fill="#3F3F3F"/>
<path d="M138.7 214.1L142.75 210.98L163.62 194.9C180.53 181.83 188.72 173.94 188.72 158.01V157.74C188.72 139.9 175.63 128.33 155.85 128.33C138.8 128.33 129.66 135.27 120.25 148.07L134.98 159.91C142.07 151.2 147.12 147.12 154.49 147.12C161.99 147.12 167.31 151.48 167.31 159.51C167.31 167.4 162.67 172.58 150.81 182.38L119.03 208.38V224.99H189.69V206.88H153.28L138.7 214.1Z" fill="#3F3F3F"/>
<path d="M138.99 106.07L155.89 66.54H151.12L137.76 98.71L138.18 103.03L137.08 100.35L125.51 72.39L123.09 66.54H118.15L135.06 106.07H138.99Z" fill="#3F3F3F"/>
<path d="M166.36 66.54H161.92V105.78H166.36V66.54Z" fill="#3F3F3F"/>
<path d="M189.86 84.03C181.21 82.18 179.19 80.11 179.19 76.41V76.3C179.19 72.77 182.45 69.97 187.56 69.97C191.6 69.97 195.26 71.26 198.91 74.23L201.49 70.81C197.5 67.61 193.4 65.99 187.67 65.99C180.2 65.99 174.75 70.53 174.75 76.7V76.81C174.75 83.26 178.91 86.17 187.95 88.14C196.21 89.88 198.17 91.95 198.17 95.6V95.71C198.17 99.58 194.69 102.38 189.41 102.38C183.96 102.38 180.03 100.53 175.93 96.83L173.18 100.08C177.9 104.29 183.01 106.36 189.24 106.36C197.05 106.36 202.66 101.99 202.66 95.26V95.15C202.66 89.14 198.62 85.94 189.86 84.03Z" fill="#3F3F3F"/>
<path d="M246.74 121.79L251.58 126.42L246.94 131.25L242.1 126.62L246.74 121.79Z" fill="#28316F"/>
<path d="M257.81 126.62L262.64 131.25L267.28 126.42L262.45 121.79L257.81 126.62Z" fill="#B4B1B3"/>
<path d="M251 132.7L254.77 136.31L258.38 132.55L254.61 128.94L251 132.7Z" fill="#D5D505"/>
<path d="M264.81 134.76L268.57 138.37L272.18 134.61L268.42 131.01L264.81 134.76Z" fill="#75B12F"/>
<path d="M244.84 138.44L248.61 142.05L252.22 138.29L248.46 134.69L244.84 138.44Z" fill="#D5D505"/>
<path d="M257.48 138.88L261.24 142.49L264.85 138.73L261.09 135.12L257.48 138.88Z" fill="#29B0BA"/>
<path d="M252.54 143.2L255.18 145.74L257.73 143.1L255.08 140.56L252.54 143.2Z" fill="#75B12F"/>
<path d="M262.53 145.2L265.17 147.73L267.72 145.09L265.07 142.55L262.53 145.2Z" fill="#5AAC4C"/>
<path d="M292.557 123.584L284.344 125.09L285.847 133.293L294.061 131.788L292.557 123.584Z" fill="#2983C6"/>
<path d="M280.179 127.308L273.588 128.515L274.793 135.095L281.383 133.889L280.179 127.308Z" fill="#213466"/>
<path d="M292.954 136.492L286.364 137.7L287.571 144.281L294.161 143.072L292.954 136.492Z" fill="#29B0BA"/>
<path d="M282.389 137.71L277.254 138.65L278.193 143.775L283.327 142.834L282.389 137.71Z" fill="#D5D505"/>
<path d="M292.379 147.439L287.244 148.38L288.183 153.504L293.317 152.564L292.379 147.439Z" fill="#B4B1B3"/>
<path d="M274.699 139.8L269.564 140.74L270.503 145.865L275.638 144.924L274.699 139.8Z" fill="#29B0BA"/>
<path d="M284.019 146.51L278.884 147.45L279.823 152.575L284.958 151.634L284.019 146.51Z" fill="#75B12F"/>
<path d="M275.957 147.419L272.348 148.081L273.008 151.681L276.617 151.019L275.957 147.419Z" fill="#B4B1B3"/>
<path d="M282.911 154.869L279.301 155.529L279.959 159.129L283.569 158.469L282.911 154.869Z" fill="#5AAC4C"/>
<path d="M308.78 151.95L305.19 159.48L312.73 163.06L316.32 155.54L308.78 151.95Z" fill="#28316F"/>
<path d="M298.07 148.47L295.19 154.51L301.24 157.39L304.12 151.35L298.07 148.47Z" fill="#29B0BA"/>
<path d="M303.02 163.35L300.14 169.39L306.2 172.26L309.08 166.23L303.02 163.35Z" fill="#75B12F"/>
<path d="M295.09 158.82L292.85 163.53L297.56 165.76L299.81 161.06L295.09 158.82Z" fill="#D5D505"/>
<path d="M297.49 172.55L295.24 177.25L299.95 179.49L302.2 174.78L297.49 172.55Z" fill="#D5D505"/>
<path d="M287.63 156.02L285.39 160.73L290.1 162.96L292.35 158.26L287.63 156.02Z" fill="#2983C6"/>
<path d="M291.26 166.9L289.01 171.61L293.73 173.84L295.97 169.14L291.26 166.9Z" fill="#B4B1B3"/>
<path d="M285.59 163.59L284.01 166.9L287.33 168.47L288.9 165.16L285.59 163.59Z" fill="#75B12F"/>
<path d="M286.859 173.664L285.286 176.969L288.6 178.546L290.173 175.241L286.859 173.664Z" fill="#29B0BA"/>
<path d="M312.84 188.01L305.52 192.01L309.54 199.32L316.86 195.32L312.84 188.01Z" fill="#2983C6"/>
<path d="M306.2 178.93L300.32 182.15L303.55 188.01L309.42 184.79L306.2 178.93Z" fill="#29B0BA"/>
<path d="M301.49 193.89L295.62 197.11L298.84 202.97L304.72 199.75L301.49 193.89Z" fill="#29B0BA"/>
<path d="M297.72 185.58L293.14 188.09L295.65 192.65L300.23 190.15L297.72 185.58Z" fill="#28316F"/>
<path d="M291.61 198.11L287.04 200.62L289.55 205.18L294.12 202.68L291.61 198.11Z" fill="#5AAC4C"/>
<path d="M293.31 178.96L288.74 181.46L291.24 186.03L295.82 183.52L293.31 178.96Z" fill="#213466"/>
<path d="M289.87 189.9L285.29 192.4L287.8 196.97L292.38 194.46L289.87 189.9Z" fill="#D5D505"/>
<path d="M287.22 183.9L284 185.66L285.77 188.87L288.98 187.11L287.22 183.9Z" fill="#B4B1B3"/>
<path d="M282.32 192.82L279.1 194.58L280.87 197.79L284.09 196.03L282.32 192.82Z" fill="#29B0BA"/>
<path d="M286.721 218.547L285.699 226.824L293.986 227.848L295.009 219.57L286.721 218.547Z" fill="#75B12F"/>
<path d="M288.29 207.559L287.467 214.198L294.116 215.022L294.939 208.383L288.29 207.559Z" fill="#213466"/>
<path d="M275.712 216.949L274.889 223.589L281.538 224.413L282.361 217.774L275.712 216.949Z" fill="#29B0BA"/>
<path d="M278.972 208.22L278.333 213.39L283.513 214.031L284.152 208.86L278.972 208.22Z" fill="#75B12F"/>
<path d="M266.677 214.809L266.038 219.98L271.218 220.62L271.857 215.45L266.677 214.809Z" fill="#B4B1B3"/>
<path d="M279.295 200.25L278.654 205.421L283.835 206.063L284.475 200.893L279.295 200.25Z" fill="#B4B1B3"/>
<path d="M270.093 207.103L269.452 212.274L274.632 212.916L275.273 207.745L270.093 207.103Z" fill="#75B12F"/>
<path d="M272.983 200.895L272.534 204.528L276.176 204.978L276.625 201.346L272.983 200.895Z" fill="#B4B1B3"/>
<path d="M263.771 205.274L263.322 208.906L266.964 209.357L267.413 205.724L263.771 205.274Z" fill="#B4B1B3"/>
<path d="M262.01 234.83L255.89 229.16L250.2 235.27L256.32 240.94L262.01 234.83Z" fill="#D5D505"/>
<path d="M260.88 118.05L254.76 112.38L249.07 118.49L255.2 124.16L260.88 118.05Z" fill="#75B12F"/>
<path d="M268.54 225.68L263.63 221.13L259.07 226.03L263.98 230.58L268.54 225.68Z" fill="#29B0BA"/>
<path d="M252.84 225.94L247.92 221.39L243.36 226.29L248.28 230.84L252.84 225.94Z" fill="#75B12F"/>
<path d="M259.54 219.75L255.72 216.2L252.17 220.02L255.99 223.56L259.54 219.75Z" fill="#2983C6"/>
<path d="M245.7 217.91L241.88 214.37L238.33 218.18L242.16 221.73L245.7 217.91Z" fill="#D5D505"/>
<path d="M264.45 213.48L260.63 209.94L257.08 213.75L260.9 217.3L264.45 213.48Z" fill="#D5D505"/>
<path d="M252.96 213.67L249.14 210.13L245.59 213.94L249.41 217.49L252.96 213.67Z" fill="#B4B1B3"/>
<path d="M257.83 209.27L255.14 206.77L252.64 209.46L255.33 211.95L257.83 209.27Z" fill="#213466"/>
<path d="M247.81 207.44L245.12 204.95L242.62 207.63L245.31 210.12L247.81 207.44Z" fill="#B4B1B3"/>
<path d="M224.688 219.73L216.501 221.371L218.14 229.548L226.327 227.907L224.688 219.73Z" fill="#2983C6"/>
<path d="M235.671 217.723L229.102 219.039L230.415 225.598L236.985 224.282L235.671 217.723Z" fill="#29B0BA"/>
<path d="M222.816 208.781L216.247 210.099L217.563 216.659L224.132 215.341L222.816 208.781Z" fill="#75B12F"/>
<path d="M232.132 209.115L227.014 210.14L228.037 215.249L233.156 214.224L232.132 209.115Z" fill="#D5D505"/>
<path d="M239.79 206.895L234.672 207.92L235.695 213.029L240.813 212.004L239.79 206.895Z" fill="#28316F"/>
<path d="M230.37 200.344L225.252 201.369L226.275 206.477L231.393 205.452L230.37 200.344Z" fill="#2983C6"/>
<path d="M237.216 201.172L233.617 201.892L234.335 205.481L237.934 204.761L237.216 201.172Z" fill="#75B12F"/>
<path d="M230.174 193.819L226.575 194.541L227.295 198.13L230.894 197.408L230.174 193.819Z" fill="#B4B1B3"/>
<path d="M201.45 201.45L204.92 193.86L197.31 190.41L193.85 197.99L201.45 201.45Z" fill="#29B0BA"/>
<path d="M212.22 204.75L214.99 198.67L208.9 195.89L206.12 201.98L212.22 204.75Z" fill="#D5D505"/>
<path d="M207.02 189.96L209.8 183.87L203.7 181.1L200.92 187.19L207.02 189.96Z" fill="#2983C6"/>
<path d="M212.419 187.442L210.257 192.182L215.007 194.348L217.169 189.607L212.419 187.442Z" fill="#29B0BA"/>
<path d="M221.38 206.21L223.54 201.47L218.79 199.31L216.63 204.05L221.38 206.21Z" fill="#B4B1B3"/>
<path d="M209.834 173.766L207.671 178.506L212.42 180.673L214.583 175.933L209.834 173.766Z" fill="#28316F"/>
<path d="M219.962 190.133L217.8 194.874L222.549 197.04L224.712 192.3L219.962 190.133Z" fill="#5AAC4C"/>
<path d="M216.135 179.334L213.971 184.073L218.719 186.241L220.884 181.502L216.135 179.334Z" fill="#D5D505"/>
<path d="M224.44 189.43L225.97 186.1L222.63 184.58L221.1 187.92L224.44 189.43Z" fill="#213466"/>
<path d="M223.02 179.37L224.54 176.03L221.2 174.51L219.68 177.85L223.02 179.37Z" fill="#75B12F"/>
<path d="M196.79 165.47L204.05 161.34L199.91 154.1L192.65 158.23L196.79 165.47Z" fill="#29B0BA"/>
<path d="M203.58 174.43L209.41 171.12L206.08 165.31L200.26 168.62L203.58 174.43Z" fill="#75B12F"/>
<path d="M208.04 159.4L213.86 156.09L210.54 150.28L204.72 153.59L208.04 159.4Z" fill="#213466"/>
<path d="M211.95 167.64L216.48 165.06L213.9 160.54L209.37 163.12L211.95 167.64Z" fill="#2983C6"/>
<path d="M217.85 155.02L222.38 152.44L219.8 147.91L215.26 150.49L217.85 155.02Z" fill="#75B12F"/>
<path d="M216.47 174.19L221 171.61L218.42 167.09L213.88 169.67L216.47 174.19Z" fill="#29B0BA"/>
<path d="M219.73 163.2L224.26 160.62L221.68 156.09L217.14 158.68L219.73 163.2Z" fill="#D5D505"/>
<path d="M222.48 169.15L225.67 167.34L223.85 164.16L220.66 165.97L222.48 169.15Z" fill="#B4B1B3"/>
<path d="M227.23 160.16L230.42 158.34L228.6 155.16L225.41 156.97L227.23 160.16Z" fill="#75B12F"/>
<path d="M214.978 125.294L214.091 133.586L222.394 134.474L223.28 126.182L214.978 125.294Z" fill="#75B12F"/>
<path d="M215.057 138.158L214.345 144.81L221.007 145.523L221.718 138.871L215.057 138.158Z" fill="#B4B1B3"/>
<path d="M227.493 128.575L226.781 135.227L233.443 135.94L234.155 129.288L227.493 128.575Z" fill="#29B0BA"/>
<path d="M225.678 139.017L225.124 144.197L230.314 144.753L230.869 139.573L225.678 139.017Z" fill="#D5D505"/>
<path d="M237.873 132.177L237.32 137.358L242.511 137.912L243.063 132.731L237.873 132.177Z" fill="#2983C6"/>
<path d="M225.502 146.963L224.947 152.144L230.138 152.699L230.692 147.519L225.502 146.963Z" fill="#29B0BA"/>
<path d="M234.59 139.953L234.035 145.133L239.225 145.689L239.78 140.508L234.59 139.953Z" fill="#75B12F"/>
<path d="M233.165 147.93L232.775 151.569L236.424 151.96L236.814 148.321L233.165 147.93Z" fill="#213466"/>
<path d="M242.29 143.397L241.903 147.037L245.552 147.425L245.94 143.786L242.29 143.397Z" fill="#B4B1B3"/>
<path d="M281.32 181.78C280.7 181.43 279.57 180.84 278.01 180.35C275.76 179.63 272.62 179.09 268.9 179.68C267.65 179.88 266.33 180.21 264.96 180.7C264.83 180.75 264.7 180.79 264.57 180.84C263.87 181.1 263.18 181.42 262.48 181.77C261.88 182.07 261.29 182.4 260.7 182.76C259.35 183.57 258.02 184.49 256.73 185.49C255.26 176.6 255.98 168.35 256.32 164.3C256.32 164.28 256.35 164.27 256.37 164.28C259.52 166.26 258.64 171.79 257.97 173.38C257.96 173.41 258 173.43 258.03 173.41C261.95 168.78 260.04 163.66 259.23 162.37C259.21 162.34 259.25 162.31 259.28 162.33C259.85 162.79 260.31 163.28 260.7 163.78C261.91 165.33 262.36 167 262.48 168.48C262.54 169.26 262.52 169.98 262.48 170.6C262.47 170.77 262.46 170.92 262.44 171.07C262.44 171.09 262.46 171.1 262.48 171.09C262.49 171.09 262.5 171.09 262.5 171.08C263.56 169 264.07 165.86 262.48 162.81C262.05 161.98 261.47 161.16 260.7 160.37C260.48 160.14 260.24 159.92 259.99 159.69C259.97 159.67 259.99 159.63 260.02 159.64C260.26 159.7 260.48 159.77 260.7 159.84C261.37 160.07 261.96 160.39 262.48 160.78C263.67 161.66 264.48 162.86 264.96 164.12C265.36 165.16 265.54 166.23 265.54 167.18C265.54 167.22 265.59 167.22 265.6 167.19C266.34 164.48 265.89 162.43 264.96 160.94C264.3 159.87 263.39 159.09 262.48 158.54C261.86 158.17 261.24 157.91 260.7 157.75C260.38 157.65 260.1 157.59 259.85 157.56C259.81 157.56 259.82 157.5 259.86 157.5C260.15 157.47 260.43 157.46 260.7 157.45C261.36 157.44 261.95 157.5 262.48 157.59C263.53 157.79 264.35 158.15 264.96 158.57C265.96 159.24 266.46 160.03 266.63 160.35C266.64 160.38 266.69 160.36 266.69 160.33C266.55 158.9 265.89 157.78 264.97 156.98C264.26 156.36 263.39 155.93 262.49 155.67C261.9 155.51 261.3 155.42 260.71 155.41C259.91 155.4 259.14 155.53 258.49 155.81C258.46 155.82 258.44 155.79 258.45 155.76C259.03 154.93 259.85 154.43 260.71 154.16C261.31 153.98 261.92 153.91 262.49 153.95C263.04 153.98 263.54 154.1 263.95 154.29C263.98 154.3 264 154.27 263.98 154.24C263.53 153.73 263.02 153.33 262.49 153.03C261.92 152.71 261.32 152.52 260.71 152.45C259.12 152.27 257.5 152.95 256.42 154.58C256.41 154.6 256.38 154.6 256.37 154.58C256.16 154.21 255.96 153.8 255.78 153.37C255.35 152.37 255 151.25 254.81 150.13C254.8 150.09 254.76 150.09 254.76 150.13C254.57 151.25 254.21 152.38 253.78 153.38C253.59 153.81 253.4 154.21 253.19 154.57C253.18 154.59 253.15 154.59 253.14 154.57C251.26 151.72 247.73 151.78 245.58 154.24C245.56 154.26 245.58 154.3 245.61 154.29C247.04 153.61 249.75 153.81 251.11 155.76C251.13 155.79 251.1 155.82 251.07 155.81C248.98 154.93 245.74 155.5 244.01 157.56C243.39 158.29 242.97 159.22 242.86 160.33C242.86 160.36 242.9 160.38 242.92 160.35C243.05 160.1 243.39 159.56 244.01 159.01C245.02 158.12 246.78 157.22 249.69 157.49C249.73 157.5 249.73 157.55 249.7 157.55C248.21 157.73 245.14 159.06 244.01 162.1C243.51 163.44 243.38 165.12 243.94 167.18C243.95 167.21 244 167.21 244 167.17C244 167.12 244 167.08 244.01 167.03C244.04 164.27 245.62 160.57 249.53 159.63C249.56 159.62 249.58 159.66 249.56 159.68C245.19 163.52 245.62 168.26 247.05 171.06C247.07 171.09 247.11 171.08 247.11 171.05C246.92 168.93 246.77 165.16 250.27 162.31C250.3 162.29 250.34 162.32 250.32 162.35C249.51 163.65 247.6 168.76 251.52 173.39C251.54 173.42 251.59 173.4 251.58 173.36C250.92 171.78 250.04 166.24 253.18 164.26C253.2 164.25 253.23 164.26 253.23 164.28C253.57 168.33 254.29 176.58 252.82 185.47C250.29 183.53 247.62 181.83 244.98 180.83C244.65 180.71 244.33 180.6 244.02 180.49C241.29 179.59 238.79 179.34 236.61 179.44C233.11 179.59 230.43 180.64 228.96 181.37C228.66 181.52 228.41 181.66 228.22 181.77C228.14 181.82 228.2 181.93 228.28 181.9C228.51 181.83 228.73 181.76 228.96 181.7C231.65 180.94 234.2 180.74 236.61 180.95C239.24 181.18 241.71 181.9 244.02 182.94C247.26 184.4 250.19 186.48 252.84 188.68C249.1 191.94 245.94 195.11 244.02 196.22C243.92 196.27 243.83 196.33 243.74 196.38C243.28 195.75 242.48 195.39 241.61 195.58C240.85 195.75 240.23 196.36 240.06 197.11C239.91 197.78 240.08 198.51 240.46 198.89C241.48 199.91 242.66 199.98 244.02 199.41C246.61 198.32 249.83 194.9 253.78 191.28C254.11 190.98 254.44 190.67 254.78 190.37C255.12 190.67 255.45 190.97 255.78 191.27C257.57 192.91 259.21 194.51 260.71 195.87C261.33 196.43 261.92 196.95 262.49 197.41C263.37 198.13 264.2 198.72 264.97 199.13C266.48 199.93 267.79 200.03 268.91 199.04C268.97 198.99 269.03 198.94 269.09 198.88C269.35 198.62 269.65 197.77 269.49 197.1C269.4 196.71 269.19 196.36 268.9 196.09C268.64 195.84 268.3 195.65 267.94 195.57C267.07 195.38 266.27 195.74 265.81 196.37C265.55 196.24 265.27 196.06 264.96 195.85C264.25 195.36 263.42 194.67 262.48 193.85C261.92 193.36 261.33 192.82 260.7 192.25C259.48 191.14 258.14 189.92 256.72 188.67C257.98 187.62 259.31 186.6 260.7 185.66C261.28 185.27 261.87 184.89 262.48 184.53C263.29 184.05 264.11 183.61 264.96 183.2C266.23 182.59 267.54 182.08 268.9 181.69C271.72 180.88 274.75 180.61 278.01 181.13C279.07 181.3 280.15 181.55 281.26 181.89C281.34 181.94 281.4 181.83 281.32 181.78Z" fill="#757A81"/>
</svg>
