<svg width="433" height="107" viewBox="0 0 433 107" fill="none" xmlns="http://www.w3.org/2000/svg">
<rect opacity="0.5" x="48.4727" width="7.06891" height="92.9057" rx="3.53446" fill="#D9D9D9"/>
<rect opacity="0.5" x="48.4727" width="7.06891" height="92.9057" rx="3.53446" fill="#D9D9D9"/>
<rect x="72.7031" y="5.04883" width="7.06899" height="82.8082" rx="3.5345" fill="url(#paint0_linear_544_139)"/>
<rect x="72.7031" y="5.04883" width="7.06899" height="82.8082" rx="3.5345" fill="url(#paint1_linear_544_139)"/>
<rect x="182.535" y="9.6416" width="7.06899" height="82.8082" rx="3.5345" fill="#D9D9D9"/>
<rect opacity="0.7" x="290.359" y="9.6416" width="7.06899" height="82.8082" rx="3.5345" fill="#5253B9"/>
<rect x="151.766" y="10.5049" width="7.06899" height="82.8082" rx="3.5345" fill="#8485CC"/>
<rect x="339.766" y="13.5049" width="7.06891" height="92.9057" rx="3.53446" fill="url(#paint2_linear_544_139)"/>
<rect x="340.117" y="13.5049" width="7.06891" height="92.9057" rx="3.53446" fill="url(#paint3_linear_544_139)"/>
<rect opacity="0.5" x="424.945" y="13.5049" width="7.06891" height="92.9057" rx="3.53446" fill="#D9D9D9"/>
<rect opacity="0.5" x="424.945" y="13.5049" width="7.06891" height="92.9057" rx="3.53446" fill="#D9D9D9"/>
<rect opacity="0.5" x="364.355" y="18.5537" width="7.06899" height="82.8082" rx="3.5345" fill="#D9D9D9"/>
<rect opacity="0.5" x="364.355" y="18.5537" width="7.06899" height="82.8082" rx="3.5345" fill="#D9D9D9"/>
<rect opacity="0.5" x="12.1172" y="20.1992" width="7.06899" height="53.5224" rx="3.5345" fill="#D9D9D9"/>
<rect opacity="0.5" x="12.1172" y="20.1992" width="7.06899" height="53.5224" rx="3.5345" fill="#D9D9D9"/>
<rect opacity="0.5" x="36.3516" y="20.1992" width="7.06899" height="53.5224" rx="3.5345" fill="#D9D9D9"/>
<rect opacity="0.5" x="36.3516" y="20.1992" width="7.06899" height="53.5224" rx="3.5345" fill="#D9D9D9"/>
<rect x="60.5859" y="20.1992" width="7.06899" height="53.5224" rx="3.5345" fill="url(#paint4_linear_544_139)"/>
<rect x="60.5859" y="20.1992" width="7.06899" height="53.5224" rx="3.5345" fill="url(#paint5_linear_544_139)"/>
<rect opacity="0.7" x="96.9414" y="20.1992" width="7.06899" height="53.5224" rx="3.5345" fill="#5253B9"/>
<rect opacity="0.7" x="96.9414" y="20.1992" width="7.06899" height="53.5224" rx="3.5345" fill="#5253B9"/>
<rect x="170.414" y="24.792" width="7.06899" height="53.5224" rx="3.5345" fill="#D9D9D9"/>
<rect x="170.414" y="24.792" width="7.06899" height="53.5224" rx="3.5345" fill="#6162BF"/>
<rect x="206.77" y="24.792" width="7.06899" height="53.5224" rx="3.5345" fill="#D9D9D9"/>
<rect x="206.77" y="24.792" width="7.06899" height="53.5224" rx="3.5345" fill="#D9D9D9"/>
<rect x="231.004" y="24.792" width="7.06899" height="53.5224" rx="3.5345" fill="#D9D9D9"/>
<rect x="231.004" y="24.792" width="7.06899" height="53.5224" rx="3.5345" fill="#D9D9D9"/>
<rect opacity="0.7" x="121.184" y="28.2773" width="7.06899" height="36.3548" rx="3.5345" fill="#5253B9"/>
<rect opacity="0.7" x="121.184" y="28.2773" width="7.06899" height="36.3548" rx="3.5345" fill="#5253B9"/>
<rect opacity="0.5" y="32.3145" width="7.06899" height="29.2858" rx="3.5345" fill="#D9D9D9"/>
<rect opacity="0.5" y="32.3145" width="7.06899" height="29.2858" rx="3.5345" fill="#D9D9D9"/>
<rect opacity="0.5" x="24.2344" y="32.3145" width="7.06899" height="29.2858" rx="3.5345" fill="#D9D9D9"/>
<rect opacity="0.5" x="24.2344" y="32.3145" width="7.06899" height="29.2858" rx="3.5345" fill="#D9D9D9"/>
<rect opacity="0.7" x="84.8242" y="32.3164" width="7.06899" height="29.2858" rx="3.5345" fill="#5253B9"/>
<rect opacity="0.7" x="84.8242" y="32.3164" width="7.06899" height="29.2858" rx="3.5345" fill="#5253B9"/>
<rect opacity="0.7" x="109.062" y="32.3164" width="7.06899" height="29.2858" rx="3.5345" fill="#5253B9"/>
<path opacity="0.7" d="M109.062 35.8509C109.062 33.8989 110.645 32.3164 112.597 32.3164C114.549 32.3164 116.131 33.8989 116.131 35.8509V58.0677C116.131 60.0198 114.549 61.6022 112.597 61.6022C110.645 61.6022 109.062 60.0198 109.062 58.0677V35.8509Z" fill="#5253B9"/>
<rect x="133.297" y="32.3164" width="7.06899" height="29.2858" rx="3.5345" fill="black"/>
<rect x="133.297" y="32.3164" width="7.06899" height="29.2858" rx="3.5345" fill="#5253B9"/>
<rect opacity="0.7" x="303.766" y="33.7041" width="7.06899" height="53.5224" rx="3.5345" fill="#5253B9"/>
<rect opacity="0.7" x="303.766" y="33.7041" width="7.06899" height="53.5224" rx="3.5345" fill="#5253B9"/>
<rect opacity="0.7" x="328" y="33.7041" width="7.06899" height="53.5224" rx="3.5345" fill="#5253B9"/>
<rect opacity="0.7" x="328" y="33.7041" width="7.06899" height="53.5224" rx="3.5345" fill="#5253B9"/>
<rect x="352.238" y="33.7041" width="7.06899" height="53.5224" rx="3.5345" fill="url(#paint6_linear_544_139)"/>
<rect x="352.238" y="33.7041" width="7.06899" height="53.5224" rx="3.5345" fill="url(#paint7_linear_544_139)"/>
<rect opacity="0.5" x="388.59" y="33.7041" width="7.06899" height="53.5224" rx="3.5345" fill="#D9D9D9"/>
<rect opacity="0.5" x="388.59" y="33.7041" width="7.06899" height="53.5224" rx="3.5345" fill="#D9D9D9"/>
<rect opacity="0.5" x="412.828" y="33.7041" width="7.06899" height="53.5224" rx="3.5345" fill="#D9D9D9"/>
<rect opacity="0.5" x="412.828" y="33.7041" width="7.06899" height="53.5224" rx="3.5345" fill="#D9D9D9"/>
<rect x="194.652" y="36.9072" width="7.06899" height="29.2858" rx="3.5345" fill="#D9D9D9"/>
<rect x="194.652" y="36.9072" width="7.06899" height="29.2858" rx="3.5345" fill="#D9D9D9"/>
<rect x="218.891" y="36.9072" width="7.06899" height="29.2858" rx="3.5345" fill="#D9D9D9"/>
<rect x="218.891" y="36.9072" width="7.06899" height="29.2858" rx="3.5345" fill="#D9D9D9"/>
<rect x="243.121" y="36.9072" width="7.06899" height="29.2858" rx="3.5345" fill="black"/>
<rect x="243.121" y="36.9072" width="7.06899" height="29.2858" rx="3.5345" fill="#AEAEAE"/>
<rect opacity="0.7" x="255.242" y="36.9092" width="7.06899" height="29.2858" rx="3.5345" fill="black"/>
<rect opacity="0.7" x="255.242" y="36.9092" width="7.06899" height="29.2858" rx="3.5345" fill="#8485E6"/>
<rect opacity="0.7" x="279.477" y="36.9092" width="7.06899" height="29.2858" rx="3.5345" fill="#5253B9"/>
<rect opacity="0.7" x="279.477" y="36.9092" width="7.06899" height="29.2858" rx="3.5345" fill="#5253B9"/>
<rect opacity="0.5" x="376.477" y="45.8193" width="7.06899" height="29.2858" rx="3.5345" fill="#D9D9D9"/>
<rect opacity="0.5" x="376.477" y="45.8193" width="7.06899" height="29.2858" rx="3.5345" fill="#D9D9D9"/>
<rect opacity="0.5" x="400.707" y="45.8193" width="7.06899" height="29.2858" rx="3.5345" fill="#D9D9D9"/>
<rect opacity="0.5" x="400.707" y="45.8193" width="7.06899" height="29.2858" rx="3.5345" fill="#D9D9D9"/>
<rect opacity="0.7" x="315.883" y="45.8213" width="7.06899" height="29.2858" rx="3.5345" fill="#5253B9"/>
<rect opacity="0.7" x="315.883" y="45.8213" width="7.06899" height="29.2858" rx="3.5345" fill="#5253B9"/>
<defs>
<linearGradient id="paint0_linear_544_139" x1="79.7721" y1="46.4529" x2="72.7031" y2="46.4529" gradientUnits="userSpaceOnUse">
<stop stop-color="#5253B9"/>
<stop offset="1" stop-color="#3132A9"/>
</linearGradient>
<linearGradient id="paint1_linear_544_139" x1="79.7721" y1="46.4529" x2="72.7031" y2="46.4529" gradientUnits="userSpaceOnUse">
<stop stop-color="#5253B9"/>
<stop offset="1" stop-color="#5253B9"/>
</linearGradient>
<linearGradient id="paint2_linear_544_139" x1="346.835" y1="59.9577" x2="339.766" y2="59.9577" gradientUnits="userSpaceOnUse">
<stop stop-color="#D9D9D9"/>
<stop offset="1" stop-color="#3132A9"/>
</linearGradient>
<linearGradient id="paint3_linear_544_139" x1="347.186" y1="59.9577" x2="340.117" y2="59.9577" gradientUnits="userSpaceOnUse">
<stop stop-color="#D9D9D9"/>
<stop offset="1" stop-color="#3132A9"/>
</linearGradient>
<linearGradient id="paint4_linear_544_139" x1="67.6549" y1="46.4555" x2="60.5859" y2="46.4555" gradientUnits="userSpaceOnUse">
<stop stop-color="#3132A9"/>
<stop offset="1" stop-color="#D9D9D9" stop-opacity="0"/>
</linearGradient>
<linearGradient id="paint5_linear_544_139" x1="67.6549" y1="46.4555" x2="60.5859" y2="46.4555" gradientUnits="userSpaceOnUse">
<stop stop-color="#5253B9"/>
<stop offset="1" stop-color="#D9D9D9" stop-opacity="0"/>
</linearGradient>
<linearGradient id="paint6_linear_544_139" x1="359.307" y1="59.9604" x2="352.238" y2="59.9604" gradientUnits="userSpaceOnUse">
<stop stop-color="#D9D9D9"/>
<stop offset="1" stop-color="#3132A9"/>
</linearGradient>
<linearGradient id="paint7_linear_544_139" x1="359.307" y1="59.9604" x2="352.238" y2="59.9604" gradientUnits="userSpaceOnUse">
<stop stop-color="#D9D9D9"/>
<stop offset="1" stop-color="#3132A9"/>
</linearGradient>
</defs>
</svg>
