<svg width="1556" height="70" viewBox="0 0 1556 70" fill="none" xmlns="http://www.w3.org/2000/svg">
<path opacity="0.1" d="M1115.39 0C1135.98 0 1155.59 12.2415 1169.39 33.6512L1169.88 34.4366C1183.48 55.971 1202.98 68.2941 1223.47 68.2927H1556V70H1223.47C1202.9 70.002 1183.28 57.7789 1169.47 36.3488L1168.98 35.5634C1155.38 14.029 1135.87 1.70588 1115.39 1.70732H1007.45C987.514 1.7052 968.537 13.7515 955.355 34.7781L954.869 35.5634C941.457 57.4163 921.944 69.9861 901.411 70H0V68.2927H901.399C921.338 68.2948 940.314 56.2485 953.496 35.222L953.982 34.4366C967.397 12.5792 986.915 0.00893547 1007.45 0L1115.39 0Z" fill="#8485E6"/>
</svg>
