<svg width="405" height="1498" viewBox="0 0 405 1498" fill="none" xmlns="http://www.w3.org/2000/svg">
<g clip-path="url(#clip0_478_23)">
<mask id="mask0_478_23" style="mask-type:luminance" maskUnits="userSpaceOnUse" x="0" y="0" width="405" height="1498">
<path d="M405 0H0V1498H405V0Z" fill="white"/>
</mask>
<g mask="url(#mask0_478_23)">
<path d="M467.79 5.07471H-30.6589C-90.4509 5.07471 -138.922 53.5457 -138.922 113.338V1385.15C-138.922 1444.94 -90.4509 1493.41 -30.6589 1493.41H467.79C527.582 1493.41 576.053 1444.94 576.053 1385.15V113.338C576.053 53.5457 527.582 5.07471 467.79 5.07471Z" fill="black"/>
<path d="M467.79 5.07471H-30.6589C-90.4509 5.07471 -138.922 53.5457 -138.922 113.338V1385.15C-138.922 1444.94 -90.4509 1493.41 -30.6589 1493.41H467.79C527.582 1493.41 576.053 1444.94 576.053 1385.15V113.338C576.053 53.5457 527.582 5.07471 467.79 5.07471Z" stroke="url(#paint0_linear_478_23)" stroke-width="10.1497"/>
<path d="M-29.9875 31.1333H468.674C514.452 31.1333 551.562 68.244 551.562 114.022V1385.04C551.562 1430.82 514.452 1467.93 468.674 1467.93H-29.9875C-75.7658 1467.93 -112.877 1430.82 -112.877 1385.04V114.022C-112.877 68.244 -75.7658 31.1333 -29.9875 31.1333Z" fill="url(#paint1_linear_478_23)"/>
<path d="M-29.9875 31.1333H468.674C514.452 31.1333 551.562 68.244 551.562 114.022V1385.04C551.562 1430.82 514.452 1467.93 468.674 1467.93H-29.9875C-75.7658 1467.93 -112.877 1430.82 -112.877 1385.04V114.022C-112.877 68.244 -75.7658 31.1333 -29.9875 31.1333Z" fill="white"/>
<path d="M-29.9875 31.1333H468.674C514.452 31.1333 551.562 68.244 551.562 114.022V1385.04C551.562 1430.82 514.452 1467.93 468.674 1467.93H-29.9875C-75.7658 1467.93 -112.877 1430.82 -112.877 1385.04V114.022C-112.877 68.244 -75.7658 31.1333 -29.9875 31.1333Z" fill="white"/>
<g filter="url(#filter0_f_478_23)">
<path d="M463.291 3.93896H-30.6603C-92.788 3.93896 -143.152 54.3033 -143.152 116.431V1372.77C-143.152 1434.89 -92.788 1485.26 -30.6603 1485.26H463.291C525.418 1485.26 575.783 1434.89 575.783 1372.77V116.431C575.783 54.3033 525.418 3.93896 463.291 3.93896Z" stroke="url(#paint2_linear_478_23)" stroke-opacity="0.49" stroke-width="1.69161"/>
</g>
</g>
</g>
<defs>
<filter id="filter0_f_478_23" x="-147.383" y="-0.289958" width="727.395" height="1489.78" filterUnits="userSpaceOnUse" color-interpolation-filters="sRGB">
<feFlood flood-opacity="0" result="BackgroundImageFix"/>
<feBlend mode="normal" in="SourceGraphic" in2="BackgroundImageFix" result="shape"/>
<feGaussianBlur stdDeviation="1.69161" result="effect1_foregroundBlur_478_23"/>
</filter>
<linearGradient id="paint0_linear_478_23" x1="218.565" y1="-0.000132932" x2="218.566" y2="1498.49" gradientUnits="userSpaceOnUse">
<stop stop-color="#292826"/>
<stop offset="1" stop-color="#232220"/>
</linearGradient>
<linearGradient id="paint1_linear_478_23" x1="219.343" y1="31.1333" x2="219.343" y2="970.867" gradientUnits="userSpaceOnUse">
<stop stop-color="#46372A"/>
<stop offset="1" stop-color="#E1D5CD"/>
</linearGradient>
<linearGradient id="paint2_linear_478_23" x1="216.315" y1="3.09315" x2="216.315" y2="1486.1" gradientUnits="userSpaceOnUse">
<stop stop-color="white"/>
<stop offset="0.51378" stop-color="white" stop-opacity="0"/>
</linearGradient>
<clipPath id="clip0_478_23">
<rect width="405" height="1498" fill="white"/>
</clipPath>
</defs>
</svg>
