<svg width="32" height="80" viewBox="0 0 32 80" fill="none" xmlns="http://www.w3.org/2000/svg">
<g clip-path="url(#clip0_399_33)">
<path d="M16 28V80" stroke="#7A7A7A" stroke-width="2" stroke-dasharray="4 8"/>
<path d="M16.0001 0C19.2091 0 22.344 0.964995 24.9973 2.76962C27.6506 4.57425 29.7 7.13422 30.8797 10.1185C32.0594 13.1028 32.3142 16.372 31.612 19.5028C30.9088 22.6345 29.2817 25.4814 26.9394 27.6753C23.9881 30.474 20.0678 32.0238 16.0001 31.9997C11.7568 31.9997 7.68706 30.3145 4.68667 27.3131C1.68628 24.3128 0 20.2431 0 15.9999C0 11.7567 1.68628 7.68696 4.68667 4.68661C7.68706 1.68625 11.7568 0 16.0001 0Z" fill="#363636" fill-opacity="0.8"/>
<path d="M16 26C21.5236 26 26 21.5227 26 16C26 10.4774 21.5236 6 16 6C10.4774 6 6 10.4774 6 16C6 21.5227 10.4774 26 16 26Z" fill="#857BF9"/>
</g>
<defs>
<clipPath id="clip0_399_33">
<rect width="32" height="80" fill="white"/>
</clipPath>
</defs>
</svg>
