<svg xmlns:xlink="http://www.w3.org/1999/xlink" width="20" height="20" viewBox="0 0 40 40" fill="white" xmlns="http://www.w3.org/2000/svg"><defs><linearGradient id="speech-to-text-gradient-gradient-617" gradientUnits="userSpaceOnUse"><stop offset="0"></stop><stop offset="0.5"></stop></linearGradient><linearGradient id="speech-to-text-gradient-gradient-617-1" gradientUnits="userSpaceOnUse"><stop offset="0.5"></stop><stop offset="1"></stop></linearGradient><mask id="stt-icon-mask-speech" maskUnits="userSpaceOnUse" x="0" y="0" width="512" height="512"><path fill-rule="evenodd" clip-rule="evenodd" d="M23.125 12C21.2635 12 19.75 13.5135 19.75 15.375V35.625C19.75 37.4865 21.2635 39 23.125 39H36.625C38.4865 39 40 37.4865 40 35.625V20.4375H33.25C32.3166 20.4375 31.5625 19.6834 31.5625 18.75V12H23.125ZM33.25 18.75H40L33.25 12V18.75ZM25.6625 25.7402V24.8711H29.139V33.5623H27.8353C27.3546 33.5623 26.9662 33.9507 26.9662 34.4314C26.9662 34.9122 27.3546 35.3006 27.8353 35.3006H32.1809C32.6617 35.3006 33.05 34.9122 33.05 34.4314C33.05 33.9507 32.6617 33.5623 32.1809 33.5623H30.8772V24.8711H34.3537V25.7402C34.3537 26.2209 34.7421 26.6093 35.2229 26.6093C35.7036 26.6093 36.092 26.2209 36.092 25.7402V24.4365C36.092 23.7167 35.508 23.1328 34.7883 23.1328H30.0081H25.2279C24.5082 23.1328 23.9242 23.7167 23.9242 24.4365V25.7402C23.9242 26.2209 24.3126 26.6093 24.7933 26.6093C25.2741 26.6093 25.6625 26.2209 25.6625 25.7402Z" fill="white"></path></mask><mask id="stt-icon-mask-text" maskUnits="userSpaceOnUse" x="0" y="0" width="512" height="512"><path fill-rule="evenodd" clip-rule="evenodd" d="M18 16.42C18 13.5 18.5 10.5 22.5 10.5C22 5.5 17.6135 1 11.5125 1C5.15433 1 0 6.14873 0 12.5C0 18.8513 5.15433 24 11.5125 24C13.6593 24 16 23.5 18 22V16.42ZM9.04545 12.5V8.4375C9.04545 7.0918 10.1449 6 11.5 6C12.8551 6 13.9545 7.0918 13.9545 8.4375H11.9091C11.6841 8.4375 11.5 8.62031 11.5 8.84375C11.5 9.06719 11.6841 9.25 11.9091 9.25H13.9545V10.0625H11.9091C11.6841 10.0625 11.5 10.2453 11.5 10.4688C11.5 10.6922 11.6841 10.875 11.9091 10.875H13.9545V11.6875H11.9091C11.6841 11.6875 11.5 11.8703 11.5 12.0938C11.5 12.3172 11.6841 12.5 11.9091 12.5H13.9545C13.9545 13.8457 12.8551 14.9375 11.5 14.9375C10.1449 14.9375 9.04545 13.8457 9.04545 12.5ZM11.5 15.75C13.3077 15.75 14.7727 14.2951 14.7727 12.5V11.4844C14.7727 11.1467 15.0463 10.875 15.3864 10.875C15.7264 10.875 16 11.1467 16 11.4844V12.5C16 14.7623 14.3074 16.6311 12.1136 16.9281V17.7812H13.3409C13.681 17.7812 13.9545 18.0529 13.9545 18.3906C13.9545 18.7283 13.681 19 13.3409 19H9.65909C9.31903 19 9.04545 18.7283 9.04545 18.3906C9.04545 18.0529 9.31903 17.7812 9.65909 17.7812H10.8864V16.9281C8.69261 16.6311 7 14.7623 7 12.5V11.4844C7 11.1467 7.27358 10.875 7.61364 10.875C7.95369 10.875 8.22727 11.1467 8.22727 11.4844V12.5C8.22727 14.2951 9.69233 15.75 11.5 15.75Z" fill="white"></path></mask><linearGradient id="speech-to-text-gradient-gradient-617" gradientUnits="userSpaceOnUse"><stop offset="0"></stop><stop offset="0.5"></stop></linearGradient><linearGradient id="speech-to-text-gradient-gradient-617-1" gradientUnits="userSpaceOnUse"><stop offset="0.5"></stop><stop offset="1"></stop></linearGradient></defs><g mask="url(#stt-icon-mask-text)" fill="white"><rect x="0" y="0" width="40" height="40" fill="white" fill-opacity="0"></rect><rect x="0" y="0" width="40" height="40" fill="#DFDFE0"></rect></g><g mask="url(#stt-icon-mask-speech)" fill="none"><rect x="0" y="0" width="40" height="40" fill="#DFDFE0" fill-opacity="0"></rect><rect x="0" y="0" width="40" height="40" fill="#DFDFE0"></rect></g></svg>