<svg xmlns:xlink="http://www.w3.org/1999/xlink" viewBox="0 0 40 40" fill="none" width="20" height="20" xmlns="http://www.w3.org/2000/svg"><defs><linearGradient id="text-to-speech-gradient-gradient-335" gradientUnits="userSpaceOnUse"><stop offset="0"></stop><stop offset="0.5"></stop></linearGradient><linearGradient id="text-to-speech-gradient-gradient-335-1" gradientUnits="userSpaceOnUse"><stop offset="0.5"></stop><stop offset="1"></stop></linearGradient><mask id="tts-icon-mask-top" maskUnits="userSpaceOnUse" x="0" y="0" width="512" height="512"><path fill-rule="evenodd" clip-rule="evenodd" d="M0 4.01001C0 2.3498 1.41408 1 3.15335 1H11.0367V7.02002C11.0367 7.85248 11.7413 8.52503 12.6134 8.52503H18.9201V14.7472C16 17 13.5 19.5 13.025 25.0801H3.15335C1.41408 25.0801 0 23.7303 0 22.0701V4.01001ZM5.52424 12.1969V12.9721C5.52424 13.4008 5.16136 13.7472 4.7122 13.7472C4.26303 13.7472 3.90015 13.4008 3.90015 12.9721V11.8094C3.90015 11.1675 4.44574 10.6467 5.11822 10.6467H14.0507C14.7232 10.6467 15.2688 11.1675 15.2688 11.8094V12.9721C15.2688 13.4008 14.9059 13.7472 14.4567 13.7472C14.0076 13.7472 13.6447 13.4008 13.6447 12.9721V12.1969H10.3965V19.9483H11.6146C12.0637 19.9483 12.4266 20.2947 12.4266 20.7234C12.4266 21.1522 12.0637 21.4986 11.6146 21.4986H7.55436C7.10519 21.4986 6.74231 21.1522 6.74231 20.7234C6.74231 20.2947 7.10519 19.9483 7.55436 19.9483H8.77242V12.1969H5.52424Z" fill="#fff"></path><path d="M18.9201 7.02002H12.6134V1L18.9201 7.02002Z" fill="#fff"></path></mask><mask id="tts-icon-mask-bottom" maskUnits="userSpaceOnUse" x="0" y="0" width="512" height="512"><path fill-rule="evenodd" clip-rule="evenodd" d="M27.3685 39.0544C34.3451 39.0544 40.0007 33.3988 40.0007 26.4222C40.0007 19.4457 34.3451 13.79 27.3685 13.79C20.3919 13.79 14.7363 19.4457 14.7363 26.4222C14.7363 33.3988 20.3919 39.0544 27.3685 39.0544ZM33.3433 26.7306C33.3433 22.9167 31.5886 19.5129 28.8445 17.2804V17.2762C28.409 16.9253 27.7663 16.9887 27.4153 17.4242C27.0644 17.8597 27.1278 18.4982 27.5633 18.8533C29.855 20.718 31.3138 23.5509 31.3138 26.7306C31.3138 29.9102 29.855 32.7431 27.5633 34.6036C27.1278 34.9587 27.0602 35.5972 27.4153 36.0327C27.7705 36.4682 28.409 36.5359 28.8445 36.1807C31.5886 33.9524 33.3433 30.5445 33.3433 26.7306ZM29.2842 26.7306C29.2842 24.1894 28.113 21.9188 26.2864 20.4305V20.4262C25.8509 20.0753 25.2082 20.1387 24.8572 20.5742C24.5063 21.0097 24.5697 21.6482 25.0052 22.0034C26.3794 23.1239 27.2547 24.8236 27.2547 26.7306C27.2547 28.6375 26.3794 30.3373 25.0052 31.4535C24.5697 31.8087 24.5021 32.4472 24.8572 32.8827C25.2124 33.3182 25.8509 33.3858 26.2864 33.0307C28.113 31.5423 29.2842 29.2717 29.2842 26.7306ZM25.2251 26.7306C25.2251 25.4579 24.6374 24.3247 23.7283 23.5805V23.5763C23.2928 23.2253 22.6501 23.2888 22.2992 23.7243C21.9482 24.1598 22.0116 24.7983 22.4471 25.1534C22.9038 25.5297 23.1955 26.0963 23.1955 26.7306C23.1955 27.3648 22.9038 27.9314 22.4471 28.3035C22.0116 28.6587 21.944 29.2971 22.2992 29.7326C22.6543 30.1681 23.2928 30.2358 23.7283 29.8806C24.6374 29.1364 25.2251 28.0033 25.2251 26.7306Z" fill="#DFDFE0"></path></mask><linearGradient id="text-to-speech-gradient-gradient-335" gradientUnits="userSpaceOnUse"><stop offset="0"></stop><stop offset="0.5"></stop></linearGradient><linearGradient id="text-to-speech-gradient-gradient-335-1" gradientUnits="userSpaceOnUse"><stop offset="0.5"></stop><stop offset="1"></stop></linearGradient></defs><g mask="url(#tts-icon-mask-top)" fill="none"><rect x="0" y="0" width="40" height="40" fill="#DFDFE0" fill-opacity="0"></rect><rect x="0" y="0" width="40" height="40" fill="#DFDFE0"></rect></g><g mask="url(#tts-icon-mask-bottom)" fill="none"><rect x="0" y="0" width="40" height="40" fill="#000000" fill-opacity="0"></rect><rect x="0" y="0" width="40" height="40" fill="#DFDFE0"></rect></g></svg>