<svg width="1290" height="456" viewBox="0 0 1290 456" fill="none" xmlns="http://www.w3.org/2000/svg">
<path d="M692.626 273.468C688.215 271.778 683.083 270.98 677.87 271.121H654.854C652.768 271.262 650.683 270.839 649.16 270.041C647.877 269.196 647.235 268.069 647.395 266.943V265.206C647.155 264.126 647.716 263.046 648.919 262.201C650.202 261.544 651.886 261.262 653.57 261.309H695.353V252.53H656.137C652.768 252.483 649.48 252.718 646.192 253.14C643.385 253.469 640.819 254.22 638.654 255.347C636.569 256.52 634.965 257.976 634.163 259.572C633.201 261.544 632.719 263.609 632.8 265.675V267.6C632.238 270.98 634.484 274.313 638.814 276.52C643.546 278.351 649.16 279.196 654.854 278.961H677.79C679.554 278.867 681.318 279.196 682.762 279.853C683.965 280.51 684.526 281.496 684.366 282.435V285.769C684.366 288.351 682.441 289.384 677.79 289.384H634.484V298.163H677.95C683.965 298.491 689.819 297.177 693.989 294.642C697.518 291.731 699.202 288.21 698.801 284.689V281.919C699.363 278.68 697.117 275.534 692.867 273.468" fill="#76777A"/>
<path d="M851.335 277.694V289.478H826.554C822.384 289.478 820.7 288.445 820.7 285.863V281.685C820.7 279.009 822.384 277.882 826.554 277.882L851.335 277.694ZM842.754 252.53H810.676V261.92H842.754C848.689 261.92 851.335 263.751 851.335 267.835V269.76H825.753C816.53 268.962 807.949 272.718 806.586 278.164C806.345 279.009 806.345 279.854 806.505 280.652V286.943C806.185 290.041 807.869 293.046 811.237 295.44C815.167 297.553 820.46 298.633 825.753 298.398H865.851V267.6C865.851 257.882 857.831 252.765 842.674 252.765" fill="#76777A"/>
<path d="M884.617 259.76H894.882L898.651 243.141H880.767L884.617 259.76Z" fill="#76777A"/>
<path d="M957.275 277.506V289.29H932.494C928.324 289.29 926.64 288.257 926.64 285.675V281.309C926.64 278.633 928.324 277.506 932.494 277.506H957.275ZM948.694 252.342H916.615V261.732H948.694C954.629 261.732 957.275 263.563 957.275 267.647V269.572H931.692C922.47 268.774 913.889 272.53 912.525 277.976C912.285 278.821 912.285 279.666 912.445 280.464V286.379C912.125 289.478 913.809 292.482 917.177 294.877C921.106 296.989 926.399 298.022 931.692 297.787H971.791V267.131C971.791 257.46 963.771 252.342 948.614 252.342" fill="#76777A"/>
<path d="M1034.02 260.699V252.53H1015.98V238.117H1000.98V283.093C1000.98 295.534 1013.09 298.163 1023.2 298.163H1033.7V289.572H1024.16C1020.39 289.572 1016.14 288.867 1016.14 283.328V260.699H1034.02Z" fill="#76777A"/>
<path d="M506.169 266.661V283.891C506.25 286.896 502.24 289.337 497.107 289.384H497.027H478.822C473.69 289.337 469.6 286.943 469.68 283.938V283.891V266.661C469.6 263.657 473.69 261.215 478.822 261.169H497.027C502.16 261.215 506.25 263.657 506.169 266.661ZM497.027 252.577H478.822C465.51 252.577 454.763 258.868 454.763 266.661V283.891C454.763 291.684 465.51 297.975 478.822 297.975H497.027C510.34 297.975 521.086 291.684 521.086 283.891V266.661C521.086 258.868 510.34 252.577 497.027 252.577Z" fill="#76777A"/>
<path d="M605.934 271.262C605.934 258.398 591.098 252.483 577.464 252.483H545.385V298.069H559.981V261.262H577.304C584.922 261.544 590.937 265.112 591.178 269.572V296.426V298.069H605.613V271.262H605.934Z" fill="#76777A"/>
<path d="M435.356 271.356C436.96 262.389 426.454 254.173 411.297 252.577H395.338C388.441 253.094 382.025 255.112 377.454 258.211C372.081 254.643 364.382 252.577 356.282 252.53H324.203V298.116H338.799V261.262H356.041C363.66 261.356 369.755 264.924 369.915 269.384C369.915 269.384 369.915 269.384 369.915 296.755V298.069H384.511V296.755C384.511 270.887 384.511 269.431 384.511 269.384C384.591 264.924 390.767 261.309 398.385 261.262H406.405C413.943 261.544 419.958 265.112 420.199 269.572V296.426V298.069H434.714L435.356 271.356Z" fill="#76777A"/>
<path d="M785.173 271.356C785.173 258.492 770.337 252.577 756.703 252.577H739.301V238.117H724.705V298.069H739.301V261.262H756.784C764.322 261.544 770.337 265.159 770.578 269.572V298.069H785.093L785.173 271.356Z" fill="#76777A"/>
<path d="M906.19 143.002C906.19 136.664 883.574 130.467 883.574 130.467C883.574 130.467 860.558 143.424 861.36 143.8L886.782 156.335C886.782 156.335 906.19 149.293 906.19 143.002Z" fill="#007297"/>
<path d="M774.908 143.8L800.411 156.335C800.411 156.335 819.738 149.293 819.738 143.002C819.738 136.711 796.882 130.467 796.882 130.467C796.882 130.467 773.865 143.424 774.667 143.8" fill="#007297"/>
<path d="M762.397 143.002C762.397 136.664 739.782 130.467 739.782 130.467C739.782 130.467 716.685 143.424 717.567 143.8L743.07 156.335C743.07 156.335 762.397 149.293 762.397 143.002Z" fill="#007297"/>
<path d="M785.013 117.368C785.013 111.077 762.397 104.88 762.397 104.88C762.397 104.88 739.381 117.838 740.183 118.213L765.686 130.701C765.686 130.701 785.013 123.706 785.013 117.368Z" fill="#007297"/>
<path d="M980.772 205.864C957.997 205.864 959.2 194.503 959.119 189.198V165.302H993.925C1005.95 165.302 1009.96 176.006 1009.96 188.494V205.911L980.772 205.864ZM1034.02 168.353C1034.02 164.692 1030.01 151.358 999.298 151.358H981.334L935.381 179.527V203.893C935.381 205.113 935.622 206.334 936.103 207.555C922.63 207.555 906.831 207.555 898.972 199.808C896.085 196.569 894.641 193.001 894.882 189.339V166.335L870.823 180.794V203.705C870.823 204.925 870.983 206.146 871.304 207.367C857.831 207.367 842.113 207.367 834.333 199.62C831.366 196.428 829.923 192.813 830.163 189.151V154.645L806.104 169.105V203.705C806.104 204.925 806.265 206.146 806.585 207.367C800.25 206.803 794.315 205.16 789.504 202.672C782.446 199.339 778.276 194.268 778.276 188.963V161.875L754.217 176.335V203.705C754.217 204.925 754.458 206.146 754.939 207.367C748.523 206.85 742.428 205.207 737.616 202.672C730.559 199.339 726.389 194.268 726.389 188.963V154.645L702.33 169.105V203.705C702.33 204.925 702.571 206.146 703.052 207.367C689.579 207.367 673.7 207.367 665.841 199.62C662.953 196.381 661.51 192.813 661.67 189.151V101.266L637.611 115.725V204.55C637.291 210.09 641.701 215.348 649.32 218.634C655.976 220.841 663.515 221.967 671.134 221.827C674.341 221.827 677.549 221.827 680.677 221.827C681.88 221.827 684.286 220.324 684.847 220.043C687.895 218.493 690.782 216.803 693.589 215.348C696.395 213.892 699.283 211.921 701.608 210.043L703.212 208.728C704.896 212.202 708.425 215.301 713.237 217.601C718.53 220.371 725.266 222.014 732.323 222.296C733.526 222.296 736.013 220.794 736.494 220.559C739.541 218.963 742.428 217.273 745.235 215.583C748.042 213.892 750.929 212.155 753.255 210.324L754.859 208.963C756.703 212.296 760.152 215.207 764.803 217.367C770.096 220.136 776.833 221.78 783.89 222.061C785.093 222.061 787.579 220.559 788.06 220.324C791.108 218.728 793.995 217.038 796.801 215.348C799.608 213.658 802.495 211.921 804.821 210.09L806.185 208.963C807.307 213 811.157 216.568 816.931 218.869C823.587 221.075 831.126 222.202 838.825 222.061C842.032 222.061 845.16 222.061 848.368 222.061C849.571 222.061 851.977 220.559 852.538 220.277C855.505 218.728 858.473 217.038 861.28 215.583C864.086 214.127 866.973 212.155 869.299 210.277L870.662 209.198C871.785 213.235 875.715 216.803 881.489 219.104C888.145 221.31 895.684 222.437 903.302 222.296C906.51 222.296 909.718 222.296 912.926 222.296C914.049 222.296 916.535 220.794 917.016 220.512C920.064 218.963 922.951 217.273 925.838 215.817C928.725 214.362 931.452 212.39 933.857 210.512C934.419 210.09 934.9 209.667 935.381 209.245C940.433 219.197 961.044 222.578 977.565 222.578H983.178L1034.02 192.484C1034.02 192.484 1034.02 168.494 1034.02 168.166" fill="#007297"/>
<path d="M477.138 153.565L503.443 166.476C503.443 166.476 523.732 159.105 523.732 152.391C523.732 145.678 499.673 139.246 499.673 139.246C499.673 139.246 480.667 150.232 477.218 152.814C477.218 146.194 453.159 139.809 453.159 139.809C453.159 139.809 429.101 153.424 429.742 153.894L456.528 167.039C456.528 167.039 475.534 160.138 476.737 153.659" fill="#007297"/>
<path d="M665.6 90.3738L694.872 73.7075V68.3555L675.705 79.0125L634.564 70.9376L632.559 70.515L604.009 87.0875V92.2986L621.653 81.9702L663.676 89.9982L665.6 90.3738Z" fill="#007297"/>
<path d="M605.052 170.184C603.287 168.4 599.358 164.973 599.358 164.973L572.893 180.043C578.747 185.63 582.677 191.874 584.521 198.353C584.521 201.217 584.521 198.353 584.521 201.123V206.569H376.01C357.405 206.569 349.866 203.517 349.866 188.588L362.617 180.888V172.485L324.444 195.442C324.444 195.442 324.444 203.658 324.444 203.893C324.364 207.742 326.288 211.545 329.897 214.784C333.105 217.413 337.676 219.338 342.889 220.371C351.47 221.826 360.532 222.296 369.434 221.873H572.331L611.227 201.404V194.926C611.227 186.475 612.51 177.837 605.212 170.184" fill="#007297"/>
</svg>
