<svg viewBox="0 0 130 32" xmlns:xlink="http://www.w3.org/1999/xlink" xmlns="http://www.w3.org/2000/svg" width="130" height="32" fill="none" id="svg-193988961_3519"><path fill-rule="evenodd" clip-rule="evenodd" d="M14.806 6.672a9.744 9.744 0 0 1 2.781 6.996v-.003c-.08 5.299-4.492 9.609-9.833 9.609H.251c-.141 0-.212-.173-.112-.277l3.651-3.705a.32.32 0 0 1 .229-.097h3.806c3.062 0 5.628-2.472 5.718-5.507a5.664 5.664 0 0 0-1.59-4.125A5.556 5.556 0 0 0 7.92 7.84H4.045v6.317a.095.095 0 0 1-.097.098H.097A.095.095 0 0 1 0 14.156V3.855c0-.056.042-.098.097-.098h7.822a9.552 9.552 0 0 1 6.887 2.915Zm10.997 2.32c-4.719 0-6.872 3.649-6.872 7.214l-.003.003c0 3.54 2.43 7.27 7.149 7.27 3.377 0 6-1.9 6.6-4.866a.1.1 0 0 0-.096-.12h-3.562a.096.096 0 0 0-.09.071c-.325 1.151-1.337 1.74-2.852 1.74-1.93 0-3.172-1.226-3.449-3.204h9.901a.093.093 0 0 0 .097-.088c.026-.299.048-.686.048-1.167 0-3.204-2.153-6.854-6.871-6.854Zm0 2.839c1.85 0 2.926 1.252 3.036 2.814h-6.156c.332-1.952 1.383-2.814 3.12-2.814Zm8.553 4.375c0-3.565 2.153-7.215 6.871-7.215 4.719 0 6.872 3.65 6.872 6.854 0 .481-.023.868-.048 1.167a.093.093 0 0 1-.097.088h-9.901c.277 1.978 1.518 3.204 3.449 3.204 1.514 0 2.526-.588 2.852-1.74a.096.096 0 0 1 .09-.072h3.561a.1.1 0 0 1 .097.12c-.6 2.968-3.223 4.867-6.6 4.867-4.719 0-7.149-3.73-7.149-7.27l.003-.003Zm9.907-1.561c-.11-1.562-1.185-2.814-3.035-2.814-1.738 0-2.788.862-3.12 2.814h6.156Zm9.712-5.43h-3.642V9.21a.095.095 0 0 0-.097.098v19.526c0 .055.042.098.097.098h3.642a.095.095 0 0 0 .096-.098v-6.837c.745.946 2.099 1.477 3.671 1.477 4.003 0 6.707-2.87 6.707-7.241 0-4.372-2.485-7.24-6.404-7.24-1.795 0-3.145.67-3.974 1.756V9.313a.095.095 0 0 0-.096-.097Zm6.665 7.02c0 2.339-1.35 3.9-3.394 3.9-2.04 0-3.394-1.535-3.394-3.9s1.354-3.926 3.394-3.926 3.394 1.587 3.394 3.926Zm9.417 9.758a.317.317 0 0 1 .229-.094h3.912c1.186 0 2.015-.947 2.015-2.228v-1.838c-.72 1.031-2.182 1.643-3.81 1.643-4.112 0-6.568-2.87-6.568-7.241 0-4.372 2.456-7.24 6.513-7.24 1.712 0 3.062.64 3.865 1.616V9.316c0-.055.041-.097.096-.097h3.642c.055 0 .097.042.097.097v14.778c0 2.898-2.07 4.846-5.215 4.846H67.54a.161.161 0 0 1-.113-.276L70.057 26v-.007Zm2.955-5.861c2.098 0 3.423-1.532 3.423-3.9s-1.325-3.926-3.423-3.926-3.394 1.56-3.394 3.926c0 2.364 1.354 3.9 3.394 3.9Zm13.698 3.021v-6.726h.003c0-2.398.854-3.985 2.76-3.985h2.194a.095.095 0 0 0 .097-.098V9.31a.095.095 0 0 0-.097-.097h-1.45c-1.712 0-2.763.582-3.507 2.338V9.31a.095.095 0 0 0-.097-.098h-3.642a.095.095 0 0 0-.096.097v13.844c0 .056.042.098.096.098h3.642a.095.095 0 0 0 .097-.098Zm6.281-3.883c0-2.759 2.044-4.43 5.106-4.43h2.317c.69 0 1.047-.446 1.047-1.032 0-1.17-.883-1.977-2.456-1.977-1.572 0-2.52 1.005-2.59 2.137a.091.091 0 0 1-.094.09h-3.227a.1.1 0 0 1-.1-.107c.19-2.764 2.444-4.963 6.205-4.963 3.532 0 6.098 2.062 6.098 5.237v8.925a.095.095 0 0 1-.097.098h-3.642a.095.095 0 0 1-.097-.098V21.3c-.47 1.307-2.014 2.172-3.919 2.172-2.678 0-4.554-1.812-4.554-4.206l.003.004Zm5.547 1.392c1.85 0 2.926-1.392 2.926-3.175v-.195h-2.787c-1.186 0-1.989.725-1.989 1.812 0 .92.774 1.561 1.85 1.561v-.003Zm12.837-11.446h-3.642l.006-.004a.095.095 0 0 0-.096.098v13.844c0 .055.042.097.096.097h3.642a.096.096 0 0 0 .097-.097v-7.869c0-1.812 1.018-3.008 2.62-3.008 1.489 0 2.456 1.197 2.456 3.008v7.869c0 .055.042.097.097.097h3.642a.095.095 0 0 0 .096-.097v-7.869c0-1.812 1.019-3.008 2.621-3.008 1.489 0 2.455 1.197 2.455 3.008v7.869c0 .055.042.097.097.097h3.642a.096.096 0 0 0 .097-.097v-9.095c0-2.81-1.96-5.068-4.967-5.068-2.233 0-3.974 1.197-4.663 2.563-.664-1.672-2.073-2.563-4.251-2.563-1.879 0-3.204.92-3.948 2.202v-1.88a.096.096 0 0 0-.097-.097Z" fill="#777C99"></path></svg>